<?xml version="1.0" encoding="UTF-8"?>
<svg version="1.1" xmlns="http://www.w3.org/2000/svg" width="512" height="512">
<path d="M0 0 C3.98071569 0.70609332 7.99675378 1.20629383 12.00244141 1.75097656 C14.11962891 2.37597656 14.11962891 2.37597656 16.11962891 5.37597656 C18.31402144 5.81043361 18.31402144 5.81043361 20.80712891 5.81347656 C25.94138443 6.15625705 28.88169063 7.51997468 33.11962891 10.37597656 C32.78962891 11.03597656 32.45962891 11.69597656 32.11962891 12.37597656 C33.43962891 12.37597656 34.75962891 12.37597656 36.11962891 12.37597656 C37.10962891 13.86097656 37.10962891 13.86097656 38.11962891 15.37597656 C38.77962891 15.70597656 39.43962891 16.03597656 40.11962891 16.37597656 C41.10962891 17.03597656 42.09962891 17.69597656 43.11962891 18.37597656 C43.80025391 18.54097656 44.48087891 18.70597656 45.18212891 18.87597656 C49.58991274 20.01346916 53.36802464 25.60459324 56.49462891 28.81347656 C58.47229244 30.74405287 60.42252386 32.45264388 62.55712891 34.18847656 C65.77173235 36.90318487 68.12628379 39.87147852 70.57666016 43.27441406 C72.24506576 45.54682473 73.99042732 47.7203097 75.80712891 49.87597656 C76.36787109 50.54628906 76.92861328 51.21660156 77.50634766 51.90722656 C79.12573577 53.71258022 79.12573577 53.71258022 82.11962891 53.37597656 C81.74837891 54.24222656 81.74837891 54.24222656 81.36962891 55.12597656 C81.28712891 55.86847656 81.20462891 56.61097656 81.11962891 57.37597656 C83.23611028 59.94598966 85.34117307 61.52367267 88.11962891 63.37597656 C87.91337891 63.93285156 87.70712891 64.48972656 87.49462891 65.06347656 C86.99993174 68.11410908 87.72156405 69.6497501 89.11962891 72.37597656 C90.63970732 74.14874915 90.63970732 74.14874915 92.11962891 75.37597656 C91.78962891 76.36597656 91.45962891 77.35597656 91.11962891 78.37597656 C91.77962891 78.37597656 92.43962891 78.37597656 93.11962891 78.37597656 C93.44962891 81.01597656 93.77962891 83.65597656 94.11962891 86.37597656 C94.77962891 86.37597656 95.43962891 86.37597656 96.11962891 86.37597656 C96.23556396 86.9305957 96.35149902 87.48521484 96.47094727 88.05664062 C96.99887324 90.57992101 97.52798918 93.10295044 98.05712891 95.62597656 C98.23953125 96.49867188 98.42193359 97.37136719 98.60986328 98.27050781 C98.78710938 99.11484375 98.96435547 99.95917969 99.14697266 100.82910156 C99.39048462 101.9916748 99.39048462 101.9916748 99.63891602 103.17773438 C99.94487597 104.57685242 100.28160103 105.9698499 100.65844727 107.3515625 C101.6273709 111.60477309 101.56314082 116.03111796 101.74462891 120.37597656 C101.81218384 121.96249023 101.81218384 121.96249023 101.88110352 123.58105469 C102.24012174 133.55892508 101.83520715 143.42393453 101.11962891 153.37597656 C100.45962891 153.37597656 99.79962891 153.37597656 99.11962891 153.37597656 C99.18150391 154.89191406 99.18150391 154.89191406 99.24462891 156.43847656 C99.11962891 160.37597656 99.11962891 160.37597656 98.11962891 163.59472656 C96.99989274 167.82872895 96.89134504 171.47158175 96.99462891 175.81347656 C97.00816406 176.91079102 97.00816406 176.91079102 97.02197266 178.03027344 C97.04526738 179.81231954 97.08112701 181.59419415 97.11962891 183.37597656 C95.45350985 183.41869756 93.78580006 183.41661488 92.11962891 183.37597656 C91.78962891 183.04597656 91.45962891 182.71597656 91.11962891 182.37597656 C90.27377893 183.93173635 89.44344492 185.49593777 88.61962891 187.06347656 C88.15556641 187.93359375 87.69150391 188.80371094 87.21337891 189.70019531 C86.07144099 192.49386486 85.90458683 194.39226769 86.11962891 197.37597656 C85.54212891 197.58222656 84.96462891 197.78847656 84.36962891 198.00097656 C81.23614617 199.91588268 79.89848304 202.19945133 78.11962891 205.37597656 C78.11962891 206.69597656 78.11962891 208.01597656 78.11962891 209.37597656 C77.45962891 209.37597656 76.79962891 209.37597656 76.11962891 209.37597656 C76.05775391 210.07722656 75.99587891 210.77847656 75.93212891 211.50097656 C74.47944254 216.64125141 70.63468128 220.6086864 66.11962891 223.37597656 C63.86962891 224.06347656 63.86962891 224.06347656 62.11962891 224.37597656 C62.11962891 225.69597656 62.11962891 227.01597656 62.11962891 228.37597656 C61.12962891 228.04597656 60.13962891 227.71597656 59.11962891 227.37597656 C58.45962891 227.70597656 57.79962891 228.03597656 57.11962891 228.37597656 C57.11962891 229.69597656 57.11962891 231.01597656 57.11962891 232.37597656 C56.12962891 232.70597656 55.13962891 233.03597656 54.11962891 233.37597656 C54.11962891 234.36597656 54.11962891 235.35597656 54.11962891 236.37597656 C53.50087891 236.62347656 52.88212891 236.87097656 52.24462891 237.12597656 C49.11724544 238.9656139 48.4242278 241.3078276 47.44946289 244.72607422 C47.16051147 245.99523682 47.16051147 245.99523682 46.86572266 247.29003906 C46.65109375 248.21558594 46.43646484 249.14113281 46.21533203 250.09472656 C45.998125 251.05378906 45.78091797 252.01285156 45.55712891 253.00097656 C45.12052248 254.91033413 44.68182279 256.81921462 44.24072266 258.72753906 C44.04921631 259.5713916 43.85770996 260.41524414 43.66040039 261.28466797 C43.11962891 263.37597656 43.11962891 263.37597656 42.11962891 265.37597656 C41.45962891 265.37597656 40.79962891 265.37597656 40.11962891 265.37597656 C40.06427979 266.3244043 40.00893066 267.27283203 39.9519043 268.25 C39.74431358 271.77623397 39.53333416 275.30223147 39.32006836 278.828125 C39.22854347 280.35278381 39.13836119 281.87752385 39.04956055 283.40234375 C38.92152043 285.59690843 38.7886191 287.79113353 38.65478516 289.98535156 C38.61619888 290.66466736 38.57761261 291.34398315 38.53785706 292.04388428 C38.37384552 294.6717884 38.17558637 297.1565481 37.52368164 299.71289062 C36.90407981 301.48298959 36.90407981 301.48298959 38.11962891 303.37597656 C36.79962891 303.70597656 35.47962891 304.03597656 34.11962891 304.37597656 C34.11962891 303.71597656 34.11962891 303.05597656 34.11962891 302.37597656 C33.45962891 302.70597656 32.79962891 303.03597656 32.11962891 303.37597656 C30.44351823 303.47316937 28.76354879 303.50666232 27.08462524 303.50968933 C26.01905899 303.51395432 24.95349274 303.5182193 23.8556366 303.52261353 C22.68156754 303.52216034 21.50749847 303.52170715 20.29785156 303.52124023 C19.06528122 303.52459885 17.83271088 303.52795746 16.56278992 303.53141785 C13.17636536 303.53930619 9.7900021 303.54259638 6.40357256 303.54323363 C3.5780283 303.54418222 0.75248994 303.54785999 -2.07305205 303.55140573 C-8.73929685 303.55955414 -15.40552814 303.56198964 -22.07177734 303.5612793 C-28.95070313 303.56067861 -35.82955047 303.57122768 -42.7084564 303.58702296 C-48.61169885 303.60009543 -54.51491566 303.60546331 -60.41817248 303.60482389 C-63.94504274 303.60456878 -67.47184333 303.60742669 -70.99869919 303.61800194 C-74.93243224 303.62947462 -78.86605761 303.62493788 -82.79980469 303.61889648 C-83.96982529 303.62451599 -85.13984589 303.6301355 -86.34532166 303.63592529 C-87.41652756 303.6317308 -88.48773346 303.62753632 -89.59140015 303.62321472 C-90.52165701 303.62375949 -91.45191387 303.62430426 -92.41036034 303.62486553 C-95.03992925 303.35989879 -96.66336565 302.79692087 -98.88037109 301.37597656 C-100.60041089 297.04357585 -100.28274892 291.91979119 -100.50537109 287.31347656 C-100.55693359 286.40275391 -100.60849609 285.49203125 -100.66162109 284.55371094 C-100.70544922 283.67908203 -100.74927734 282.80445313 -100.79443359 281.90332031 C-100.8352002 281.10659912 -100.8759668 280.30987793 -100.91796875 279.48901367 C-100.88037109 277.37597656 -100.88037109 277.37597656 -99.88037109 274.37597656 C-100.54037109 274.37597656 -101.20037109 274.37597656 -101.88037109 274.37597656 C-101.92935547 273.49554688 -101.97833984 272.61511719 -102.02880859 271.70800781 C-102.10357422 270.5465625 -102.17833984 269.38511719 -102.25537109 268.18847656 C-102.32498047 267.03992188 -102.39458984 265.89136719 -102.46630859 264.70800781 C-102.85882034 261.54939911 -103.57772047 259.25473501 -104.88037109 256.37597656 C-105.37537109 254.89097656 -105.37537109 254.89097656 -105.88037109 253.37597656 C-106.21037109 252.77785156 -106.54037109 252.17972656 -106.88037109 251.56347656 C-107.88037109 249.37597656 -107.88037109 249.37597656 -108.13037109 246.75097656 C-109.23828369 241.76536986 -111.70312168 237.37520095 -114.88037109 233.37597656 C-115.87037109 233.37597656 -116.86037109 233.37597656 -117.88037109 233.37597656 C-118.12787109 232.59222656 -118.37537109 231.80847656 -118.63037109 231.00097656 C-120.08817973 227.93957842 -120.96030582 227.78891137 -123.88037109 226.37597656 C-124.63037109 224.25097656 -124.63037109 224.25097656 -124.88037109 222.37597656 C-125.87037109 222.37597656 -126.86037109 222.37597656 -127.88037109 222.37597656 C-128.54037109 220.72597656 -129.20037109 219.07597656 -129.88037109 217.37597656 C-130.54037109 217.37597656 -131.20037109 217.37597656 -131.88037109 217.37597656 C-131.88037109 216.71597656 -131.88037109 216.05597656 -131.88037109 215.37597656 C-133.53037109 214.71597656 -135.18037109 214.05597656 -136.88037109 213.37597656 C-136.88037109 212.38597656 -136.88037109 211.39597656 -136.88037109 210.37597656 C-138.36537109 209.38597656 -138.36537109 209.38597656 -139.88037109 208.37597656 C-140.21037109 207.38597656 -140.54037109 206.39597656 -140.88037109 205.37597656 C-141.88049222 203.08998542 -142.73259346 201.5237542 -144.50537109 199.75097656 C-144.95912109 199.29722656 -145.41287109 198.84347656 -145.88037109 198.37597656 C-145.88037109 197.71597656 -145.88037109 197.05597656 -145.88037109 196.37597656 C-146.54037109 196.37597656 -147.20037109 196.37597656 -147.88037109 196.37597656 C-148.21037109 193.40597656 -148.54037109 190.43597656 -148.88037109 187.37597656 C-149.54037109 187.37597656 -150.20037109 187.37597656 -150.88037109 187.37597656 C-152.68010094 184.67638179 -153.13296496 183.3656011 -153.88037109 180.37597656 C-154.54037109 179.38597656 -155.20037109 178.39597656 -155.88037109 177.37597656 C-156.11279603 175.48337351 -156.34011075 173.58984449 -156.52880859 171.69238281 C-156.92236227 169.09930136 -157.6376013 166.74580774 -158.44287109 164.25097656 C-159.63593803 160.49802813 -160.19416907 157.35075097 -159.88037109 153.37597656 C-160.54037109 153.37597656 -161.20037109 153.37597656 -161.88037109 153.37597656 C-161.84943359 151.95285156 -161.84943359 151.95285156 -161.81787109 150.50097656 C-161.65485284 147.46931373 -161.65485284 147.46931373 -162.88037109 145.37597656 C-163.88777473 130.91973433 -163.07296585 116.51504212 -160.26074219 102.32080078 C-159.72028867 99.55748067 -159.27894356 96.77847713 -158.81787109 94.00097656 C-158.23137817 90.57138937 -157.36261867 87.53593294 -155.88037109 84.37597656 C-154.89037109 83.88097656 -154.89037109 83.88097656 -153.88037109 83.37597656 C-154.21037109 82.38597656 -154.54037109 81.39597656 -154.88037109 80.37597656 C-153.66552734 77.56347656 -153.66552734 77.56347656 -151.94287109 74.37597656 C-149.51998776 70.10782158 -149.51998776 70.10782158 -148.88037109 65.37597656 C-148.88037109 64.71597656 -148.88037109 64.05597656 -148.88037109 63.37597656 C-148.07599609 62.90160156 -147.27162109 62.42722656 -146.44287109 61.93847656 C-143.58856349 60.57613984 -143.58856349 60.57613984 -142.88037109 57.37597656 C-141.54703776 56.04264323 -140.21370443 54.7093099 -138.88037109 53.37597656 C-137.74686576 51.35927829 -137.74686576 51.35927829 -136.88037109 49.37597656 C-135.01128853 46.57235272 -133.00075744 43.99111973 -130.88037109 41.37597656 C-131.54037109 40.71597656 -132.20037109 40.05597656 -132.88037109 39.37597656 C-131.78724609 39.12847656 -130.69412109 38.88097656 -129.56787109 38.62597656 C-125.73429388 37.32645886 -124.82839399 36.75938475 -122.88037109 33.37597656 C-122.22037109 32.38597656 -121.56037109 31.39597656 -120.88037109 30.37597656 C-119.89037109 30.87097656 -119.89037109 30.87097656 -118.88037109 31.37597656 C-118.88037109 30.71597656 -118.88037109 30.05597656 -118.88037109 29.37597656 C-118.22037109 29.37597656 -117.56037109 29.37597656 -116.88037109 29.37597656 C-116.88037109 28.05597656 -116.88037109 26.73597656 -116.88037109 25.37597656 C-114.90037109 25.04597656 -112.92037109 24.71597656 -110.88037109 24.37597656 C-110.88037109 23.71597656 -110.88037109 23.05597656 -110.88037109 22.37597656 C-109.56037109 22.37597656 -108.24037109 22.37597656 -106.88037109 22.37597656 C-106.38537109 20.89097656 -106.38537109 20.89097656 -105.88037109 19.37597656 C-104.89037109 19.04597656 -103.90037109 18.71597656 -102.88037109 18.37597656 C-102.22037109 17.71597656 -101.56037109 17.05597656 -100.88037109 16.37597656 C-99.89037109 16.37597656 -98.90037109 16.37597656 -97.88037109 16.37597656 C-97.88037109 15.71597656 -97.88037109 15.05597656 -97.88037109 14.37597656 C-96.42411659 13.70478107 -94.96529242 13.03915849 -93.50537109 12.37597656 C-92.69326172 12.00472656 -91.88115234 11.63347656 -91.04443359 11.25097656 C-88.88037109 10.37597656 -88.88037109 10.37597656 -86.88037109 10.37597656 C-86.55037109 9.71597656 -86.22037109 9.05597656 -85.88037109 8.37597656 C-61.26819766 -5.68812254 -26.8352982 -4.94073173 0 0 Z M-24.31787109 14.81347656 C-30.94197444 15.52862942 -37.52757053 15.40682829 -44.17895508 15.25073242 C-51.56743119 15.15210906 -58.28658871 15.85935417 -64.88037109 19.37597656 C-64.88037109 20.03597656 -64.88037109 20.69597656 -64.88037109 21.37597656 C-65.57517578 21.16070312 -66.26998047 20.94542969 -66.98583984 20.72363281 C-70.72645522 20.27435512 -72.78038896 21.27598461 -76.19287109 22.81347656 C-77.26150391 23.2865625 -78.33013672 23.75964844 -79.43115234 24.24707031 C-80.23939453 24.61960938 -81.04763672 24.99214844 -81.88037109 25.37597656 C-80.56037109 25.70597656 -79.24037109 26.03597656 -77.88037109 26.37597656 C-77.88037109 28.02597656 -77.88037109 29.67597656 -77.88037109 31.37597656 C-85.30175474 31.50176273 -85.30175474 31.50176273 -88.75537109 30.75097656 C-89.45662109 30.62722656 -90.15787109 30.50347656 -90.88037109 30.37597656 C-93.04380121 32.40866259 -93.04380121 32.40866259 -94.88037109 35.37597656 C-95.54037109 35.04597656 -96.20037109 34.71597656 -96.88037109 34.37597656 C-97.87037109 35.36597656 -98.86037109 36.35597656 -99.88037109 37.37597656 C-99.22037109 37.70597656 -98.56037109 38.03597656 -97.88037109 38.37597656 C-97.88037109 39.03597656 -97.88037109 39.69597656 -97.88037109 40.37597656 C-100.35537109 39.38597656 -100.35537109 39.38597656 -102.88037109 38.37597656 C-103.37537109 39.86097656 -103.37537109 39.86097656 -103.88037109 41.37597656 C-105.69287109 42.37597656 -105.69287109 42.37597656 -107.88037109 43.37597656 C-110.30341477 44.29741576 -110.30341477 44.29741576 -111.88037109 46.37597656 C-111.91861969 49.44679253 -111.46086986 52.36621667 -110.88037109 55.37597656 C-111.62287109 55.00472656 -112.36537109 54.63347656 -113.13037109 54.25097656 C-115.79404674 53.11653603 -115.79404674 53.11653603 -118.13037109 54.06347656 C-120.18671674 55.34633021 -120.18671674 55.34633021 -120.88037109 58.37597656 C-122.52580889 60.06360508 -124.19325686 61.73001146 -125.88037109 63.37597656 C-128.04337011 66.2827238 -128.04337011 66.2827238 -128.81787109 69.75097656 C-129.80191772 73.10831212 -130.83106609 75.55818219 -132.88037109 78.37597656 C-133.54037109 78.37597656 -134.20037109 78.37597656 -134.88037109 78.37597656 C-135.72023193 80.31065599 -136.55205136 82.24882785 -137.38037109 84.18847656 C-137.84443359 85.26742187 -138.30849609 86.34636719 -138.78662109 87.45800781 C-140.05586413 90.32479681 -140.05586413 90.32479681 -139.88037109 93.37597656 C-140.54037109 94.36597656 -141.20037109 95.35597656 -141.88037109 96.37597656 C-142.46793823 98.58849012 -142.97994732 100.82156823 -143.44287109 103.06347656 C-143.81605469 104.83271484 -143.81605469 104.83271484 -144.19677734 106.63769531 C-145.60311258 114.32834003 -146.03711578 121.63457448 -146.00537109 129.43847656 C-146.00923828 130.39302734 -146.01310547 131.34757812 -146.01708984 132.33105469 C-146.00811466 138.83357874 -145.63335706 145.07821216 -143.88037109 151.37597656 C-143.65478516 152.21773437 -143.42919922 153.05949219 -143.19677734 153.92675781 C-141.78847254 159.08567749 -140.36457237 164.23835675 -138.88037109 169.37597656 C-138.22037109 169.37597656 -137.56037109 169.37597656 -136.88037109 169.37597656 C-137.21037109 170.36597656 -137.54037109 171.35597656 -137.88037109 172.37597656 C-137.55037109 173.03597656 -137.22037109 173.69597656 -136.88037109 174.37597656 C-136.22037109 174.37597656 -135.56037109 174.37597656 -134.88037109 174.37597656 C-135.21037109 175.36597656 -135.54037109 176.35597656 -135.88037109 177.37597656 C-134.51723889 180.30442039 -134.51723889 180.30442039 -132.56787109 183.37597656 C-131.93236328 184.42785156 -131.29685547 185.47972656 -130.64208984 186.56347656 C-129.41697723 188.51931045 -128.16053781 190.45572649 -126.88037109 192.37597656 C-125.89037109 192.37597656 -124.90037109 192.37597656 -123.88037109 192.37597656 C-124.21037109 193.36597656 -124.54037109 194.35597656 -124.88037109 195.37597656 C-123.2713618 197.78737263 -123.2713618 197.78737263 -120.88037109 200.37597656 C-119.9010923 201.54254911 -118.92193146 202.70922069 -117.94287109 203.87597656 C-113.48800145 209.32519043 -113.48800145 209.32519043 -107.88037109 213.37597656 C-107.22037109 213.04597656 -106.56037109 212.71597656 -105.88037109 212.37597656 C-105.88037109 213.03597656 -105.88037109 213.69597656 -105.88037109 214.37597656 C-105.22037109 214.37597656 -104.56037109 214.37597656 -103.88037109 214.37597656 C-103.88037109 215.03597656 -103.88037109 215.69597656 -103.88037109 216.37597656 C-103.22037109 216.37597656 -102.56037109 216.37597656 -101.88037109 216.37597656 C-101.67412109 217.32472656 -101.46787109 218.27347656 -101.25537109 219.25097656 C-100.04564046 223.5236422 -97.80699875 226.93938682 -95.47412109 230.68457031 C-91.98958405 236.56899684 -89.04572974 242.61291228 -87.88037109 249.37597656 C-87.3817379 251.91792186 -86.88170425 254.45956492 -86.38037109 257.00097656 C-86.25017578 257.66871094 -86.11998047 258.33644531 -85.98583984 259.02441406 C-85.4197532 261.8834375 -84.8032886 264.60722403 -83.88037109 267.37597656 C-83.65318614 269.94232517 -83.46428926 272.49275764 -83.31787109 275.06347656 C-83.2746875 275.76537109 -83.23150391 276.46726562 -83.18701172 277.19042969 C-83.0811975 278.91872863 -82.98030529 280.64732766 -82.88037109 282.37597656 C-80.11185614 283.15717712 -77.65512983 283.50141048 -74.78173828 283.50296021 C-73.97426147 283.50578003 -73.16678467 283.50859985 -72.33483887 283.51150513 C-71.45783325 283.5094809 -70.58082764 283.50745667 -69.67724609 283.50537109 C-68.74674438 283.50712341 -67.81624268 283.50887573 -66.85754395 283.51068115 C-63.78180069 283.51508231 -60.70611494 283.51216776 -57.63037109 283.50878906 C-55.49332671 283.5094626 -53.3562824 283.51043304 -51.21923828 283.51168823 C-46.74038972 283.51316285 -42.26156109 283.51101819 -37.78271484 283.50634766 C-32.03918877 283.50065052 -26.29570942 283.50393078 -20.55218506 283.50992012 C-16.13931933 283.51353207 -11.72646469 283.51238422 -7.31359863 283.50979233 C-5.19567865 283.50912482 -3.07775767 283.50994535 -0.95983887 283.51227188 C1.99896924 283.51480876 4.95770146 283.51094311 7.91650391 283.50537109 C9.23201233 283.50840744 9.23201233 283.50840744 10.57409668 283.51150513 C11.38157349 283.5086853 12.18905029 283.50586548 13.02099609 283.50296021 C13.72005066 283.50258318 14.41910522 283.50220615 15.13934326 283.5018177 C17.23477589 283.36865932 19.10243093 282.94517565 21.11962891 282.37597656 C21.25240234 281.1578125 21.38517578 279.93964844 21.52197266 278.68457031 C21.70029858 277.06086586 21.87868733 275.43716831 22.05712891 273.81347656 C22.18764648 272.61368164 22.18764648 272.61368164 22.32080078 271.38964844 C22.83724343 266.70340959 23.42484422 262.0391711 24.11962891 257.37597656 C24.44962891 257.37597656 24.77962891 257.37597656 25.11962891 257.37597656 C25.20212891 256.42722656 25.28462891 255.47847656 25.36962891 254.50097656 C25.9493731 250.30635681 27.50286661 246.67043684 29.18212891 242.80566406 C30.20356343 240.37879549 30.20356343 240.37879549 30.61962891 237.69628906 C31.11962891 235.37597656 31.11962891 235.37597656 33.11962891 233.37597656 C33.89607967 231.99468191 34.64263184 230.59642754 35.36962891 229.18847656 C37.50051789 225.24474174 39.92161513 222.04791568 42.98291016 218.78613281 C44.32882351 217.41833723 44.32882351 217.41833723 44.11962891 215.37597656 C44.77962891 215.04597656 45.43962891 214.71597656 46.11962891 214.37597656 C46.44962891 214.04597656 46.77962891 213.71597656 47.11962891 213.37597656 C47.77962891 213.04597656 48.43962891 212.71597656 49.11962891 212.37597656 C49.11962891 211.38597656 49.11962891 210.39597656 49.11962891 209.37597656 C49.69712891 209.31410156 50.27462891 209.25222656 50.86962891 209.18847656 C54.04411374 208.04213482 55.24811466 206.11640814 57.11962891 203.37597656 C57.11962891 202.71597656 57.11962891 202.05597656 57.11962891 201.37597656 C57.68423828 201.19550781 58.24884766 201.01503906 58.83056641 200.82910156 C62.21042775 198.68352405 63.79282859 195.51560312 65.74462891 192.12597656 C66.13908203 191.46984375 66.53353516 190.81371094 66.93994141 190.13769531 C69.1995652 186.29786163 70.74730901 182.63142725 72.11962891 178.37597656 C72.77962891 177.71597656 73.43962891 177.05597656 74.11962891 176.37597656 C74.11962891 175.05597656 74.11962891 173.73597656 74.11962891 172.37597656 C74.77962891 172.37597656 75.43962891 172.37597656 76.11962891 172.37597656 C76.24080078 171.76109375 76.36197266 171.14621094 76.48681641 170.51269531 C76.73818359 169.30033203 76.73818359 169.30033203 76.99462891 168.06347656 C77.23826172 166.86271484 77.23826172 166.86271484 77.48681641 165.63769531 C78.11962891 163.37597656 78.11962891 163.37597656 80.11962891 160.37597656 C81.0469188 157.09826436 81.54786504 153.73179062 82.11962891 150.37597656 C82.30783203 149.34085938 82.49603516 148.30574219 82.68994141 147.23925781 C85.05290637 132.91170263 86.87180774 112.88033422 80.11962891 99.37597656 C79.45962891 99.37597656 78.79962891 99.37597656 78.11962891 99.37597656 C78.02166016 98.54195313 77.92369141 97.70792969 77.82275391 96.84863281 C76.5766473 87.47060636 74.11027412 80.3610089 69.11962891 72.37597656 C68.36950079 70.95937773 67.61951667 69.54270264 66.86962891 68.12597656 C63.53118446 62.07631056 59.3446534 55.96591521 54.11962891 51.37597656 C53.45962891 51.37597656 52.79962891 51.37597656 52.11962891 51.37597656 C51.78962891 50.38597656 51.45962891 49.39597656 51.11962891 48.37597656 C50.45962891 48.04597656 49.79962891 47.71597656 49.11962891 47.37597656 C47.11962891 46.37597656 47.11962891 46.37597656 46.11962891 43.37597656 C45.45962891 43.37597656 44.79962891 43.37597656 44.11962891 43.37597656 C43.12962891 41.39597656 43.12962891 41.39597656 42.11962891 39.37597656 C41.12962891 39.37597656 40.13962891 39.37597656 39.11962891 39.37597656 C38.78962891 38.38597656 38.45962891 37.39597656 38.11962891 36.37597656 C36.37095407 35.29166562 36.37095407 35.29166562 34.11962891 34.37597656 C27.66597037 31.34670827 27.66597037 31.34670827 25.11962891 28.37597656 C24.45962891 28.70597656 23.79962891 29.03597656 23.11962891 29.37597656 C22.78962891 28.38597656 22.45962891 27.39597656 22.11962891 26.37597656 C21.37712891 26.27285156 20.63462891 26.16972656 19.86962891 26.06347656 C17.11962891 25.37597656 17.11962891 25.37597656 15.27587891 23.96191406 C7.41408088 18.17950464 -4.04755423 16.36611673 -13.58349609 15.62207031 C-15.88037109 15.37597656 -15.88037109 15.37597656 -17.89990234 14.82128906 C-20.23078138 14.29718608 -21.95016398 14.49855985 -24.31787109 14.81347656 Z M-113.88037109 48.37597656 C-113.88037109 49.36597656 -113.88037109 50.35597656 -113.88037109 51.37597656 C-113.22037109 50.71597656 -112.56037109 50.05597656 -111.88037109 49.37597656 C-112.54037109 49.04597656 -113.20037109 48.71597656 -113.88037109 48.37597656 Z M-130.88037109 71.37597656 C-129.88037109 73.37597656 -129.88037109 73.37597656 -129.88037109 73.37597656 Z M-131.88037109 73.37597656 C-131.88037109 76.37597656 -131.88037109 76.37597656 -131.88037109 76.37597656 Z M77.11962891 91.37597656 C78.11962891 93.37597656 78.11962891 93.37597656 78.11962891 93.37597656 Z M78.11962891 95.37597656 C79.11962891 97.37597656 79.11962891 97.37597656 79.11962891 97.37597656 Z M95.11962891 169.37597656 C93.24419537 173.24361102 93.24419537 173.24361102 94.11962891 177.37597656 C95.54907836 175.02158923 96.20624152 173.89565224 95.74462891 171.12597656 C95.53837891 170.54847656 95.33212891 169.97097656 95.11962891 169.37597656 Z M92.11962891 177.37597656 C93.11962891 180.37597656 93.11962891 180.37597656 93.11962891 180.37597656 Z M72.11962891 211.37597656 C72.44962891 212.36597656 72.77962891 213.35597656 73.11962891 214.37597656 C73.11962891 213.38597656 73.11962891 212.39597656 73.11962891 211.37597656 C72.78962891 211.37597656 72.45962891 211.37597656 72.11962891 211.37597656 Z M70.11962891 215.37597656 C69.12962891 216.36597656 68.13962891 217.35597656 67.11962891 218.37597656 C68.43962891 218.04597656 69.75962891 217.71597656 71.11962891 217.37597656 C70.78962891 216.71597656 70.45962891 216.05597656 70.11962891 215.37597656 Z M-117.88037109 229.37597656 C-116.88037109 231.37597656 -116.88037109 231.37597656 -116.88037109 231.37597656 Z M45.11962891 246.37597656 C46.11962891 248.37597656 46.11962891 248.37597656 46.11962891 248.37597656 Z M-106.88037109 247.37597656 C-105.88037109 249.37597656 -105.88037109 249.37597656 -105.88037109 249.37597656 Z M44.11962891 249.37597656 C43.78962891 250.69597656 43.45962891 252.01597656 43.11962891 253.37597656 C43.77962891 253.04597656 44.43962891 252.71597656 45.11962891 252.37597656 C44.78962891 251.38597656 44.45962891 250.39597656 44.11962891 249.37597656 Z M41.11962891 259.37597656 C42.11962891 261.37597656 42.11962891 261.37597656 42.11962891 261.37597656 Z " fill="#F4F4F4" transform="translate(286.88037109375,112.6240234375)"/>
<path d="M0 0 C1.02927612 -0.00137466 2.05855225 -0.00274933 3.11901855 -0.00416565 C4.81941788 0.00122726 4.81941788 0.00122726 6.5541687 0.00672913 C7.74439636 0.0065831 8.93462402 0.00643707 10.16091919 0.00628662 C13.42930857 0.00686493 16.69765544 0.01188878 19.96603632 0.01886058 C23.3800046 0.02510135 26.79397367 0.02569849 30.20794678 0.02688599 C36.6748439 0.02999716 43.14172416 0.03820768 49.60861385 0.04823548 C56.97006559 0.05940323 64.33151813 0.06490874 71.69297624 0.06993091 C86.83795995 0.08039046 101.98292788 0.09798579 117.12789917 0.12025452 C117.12789917 0.78025452 117.12789917 1.44025452 117.12789917 2.12025452 C118.11789917 2.12025452 119.10789917 2.12025452 120.12789917 2.12025452 C120.12789917 2.78025452 120.12789917 3.44025452 120.12789917 4.12025452 C120.70539917 4.40900452 121.28289917 4.69775452 121.87789917 4.99525452 C123.9612325 6.03692118 126.04456584 7.07858785 128.12789917 8.12025452 C127.79789917 8.78025452 127.46789917 9.44025452 127.12789917 10.12025452 C127.43727417 10.98650452 127.74664917 11.85275452 128.06539917 12.74525452 C130.30576839 19.86172147 129.51967858 27.45487617 126.12789917 34.12025452 C123.87368698 36.10268226 121.9478092 36.91172165 119.12789917 38.12025452 C118.13789917 38.78025452 117.14789917 39.44025452 116.12789917 40.12025452 C110.67015757 41.45076382 105.13429613 41.26808222 99.55197144 41.26551819 C97.97281448 41.27055611 97.97281448 41.27055611 96.36175537 41.2756958 C92.88925998 41.28517775 89.41681294 41.28714741 85.94430542 41.28822327 C83.5258431 41.29143733 81.10738098 41.29480152 78.68891907 41.29830933 C73.6225947 41.30429339 68.55628737 41.30614992 63.48995972 41.30555725 C57.00241191 41.30545557 50.51497341 41.31911709 44.02745152 41.33632946 C39.03371174 41.3474536 34.03999838 41.34947634 29.04624748 41.34894753 C26.65448568 41.35012665 24.26272317 41.35454466 21.87097359 41.36227989 C18.52497844 41.37208966 15.17922049 41.36919788 11.83322144 41.36317444 C10.84858414 41.36879395 9.86394684 41.37441345 8.84947205 41.38020325 C0.6334639 41.34266686 -5.58850785 40.12388611 -12.13772583 34.88197327 C-16.12822497 30.82856085 -17.0056803 26.09487414 -17.18460083 20.55775452 C-16.95052248 14.89110787 -16.127424 10.59525924 -12.37210083 6.18275452 C-9.87210083 4.12025452 -9.87210083 4.12025452 -7.87210083 4.12025452 C-7.54210083 3.13025452 -7.21210083 2.14025452 -6.87210083 1.12025452 C-4.39667647 -0.11745766 -2.76927847 -0.0028432 0 0 Z M6.12789917 16.12025452 C6.12789917 16.78025452 6.12789917 17.44025452 6.12789917 18.12025452 C5.13789917 18.45025452 4.14789917 18.78025452 3.12789917 19.12025452 C37.44789917 19.12025452 71.76789917 19.12025452 107.12789917 19.12025452 C107.45789917 18.13025452 107.78789917 17.14025452 108.12789917 16.12025452 C74.46789917 16.12025452 40.80789917 16.12025452 6.12789917 16.12025452 Z M0.12789917 18.12025452 C1.12789917 21.12025452 1.12789917 21.12025452 1.12789917 21.12025452 Z M109.12789917 19.12025452 C109.12789917 19.78025452 109.12789917 20.44025452 109.12789917 21.12025452 C108.13789917 20.62525452 108.13789917 20.62525452 107.12789917 20.12025452 C104.04722439 20.02143182 100.98912319 19.98399989 97.90817261 19.99085999 C96.95191483 19.98910767 95.99565704 19.98735535 95.01042175 19.98554993 C91.83602098 19.981134 88.66167555 19.98406943 85.48727417 19.98744202 C83.28490183 19.98676868 81.08252956 19.98579841 78.88015747 19.98454285 C74.25651342 19.98306604 69.63288864 19.98521905 65.00924683 19.98988342 C59.08650035 19.99556734 53.16379932 19.99231008 47.24105453 19.98631096 C42.68913431 19.98269348 38.13722481 19.98384963 33.58530426 19.98643875 C31.40205124 19.98710543 29.21879723 19.98628865 27.03554535 19.9839592 C23.97873873 19.98141473 20.92200506 19.98529923 17.86520386 19.99085999 C16.5136898 19.98782364 16.5136898 19.98782364 15.13487244 19.98472595 C10.68426863 19.99969558 6.50904778 20.21905579 2.12789917 21.12025452 C2.45789917 21.78025452 2.78789917 22.44025452 3.12789917 23.12025452 C38.43789917 23.12025452 73.74789917 23.12025452 110.12789917 23.12025452 C110.45789917 22.46025452 110.78789917 21.80025452 111.12789917 21.12025452 C110.13789917 20.13025452 110.13789917 20.13025452 109.12789917 19.12025452 Z " fill="#F8F8F8" transform="translate(199.87210083007813,423.87974548339844)"/>
<path d="M0 0 C0.87344055 -0.00014603 1.7468811 -0.00029205 2.64678955 -0.0004425 C5.53798901 0.00025489 8.42912427 0.00804087 11.3203125 0.01586914 C13.3266598 0.01773441 15.33300755 0.0191578 17.33935547 0.02015686 C22.6252569 0.02397737 27.9111309 0.03380124 33.19702148 0.04486084 C38.5766564 0.05507022 43.9562957 0.05965738 49.3359375 0.06469727 C58.78663111 0.07427783 68.23730728 0.08875582 77.68798828 0.10679626 C79.94042719 0.11083024 82.19286998 0.11352539 84.4453125 0.11352539 C87.84321381 1.42884203 90.09447061 3.34289031 92.4453125 6.11352539 C92.4453125 7.10352539 92.4453125 8.09352539 92.4453125 9.11352539 C93.1053125 9.11352539 93.7653125 9.11352539 94.4453125 9.11352539 C96.55273143 17.01634637 95.99831737 23.85947379 92.4453125 31.11352539 C92.4453125 32.10352539 92.4453125 33.09352539 92.4453125 34.11352539 C90.4453125 37.11352539 90.4453125 37.11352539 88.6953125 37.67602539 C87.9528125 37.82040039 87.2103125 37.96477539 86.4453125 38.11352539 C85.59713959 38.44786591 84.74896667 38.78220642 83.87509155 39.12667847 C79.58828618 40.36011672 75.75332236 40.37859508 71.31884766 40.34057617 C70.42064301 40.34086823 69.52243835 40.34116028 68.59701538 40.34146118 C65.64270197 40.34007332 62.68864409 40.32453771 59.734375 40.30883789 C57.68028908 40.30510583 55.62620138 40.30225977 53.57211304 40.30026245 C48.17656504 40.29264122 42.78112542 40.27300566 37.38562012 40.25085449 C31.87558457 40.23036355 26.36553145 40.22125379 20.85546875 40.21118164 C10.05203583 40.18975838 -0.75131681 40.15564063 -11.5546875 40.11352539 C-11.5546875 38.79352539 -11.5546875 37.47352539 -11.5546875 36.11352539 C-12.1734375 35.96915039 -12.7921875 35.82477539 -13.4296875 35.67602539 C-16.82562915 34.77709966 -18.04711691 33.79013312 -19.8046875 30.80102539 C-23.06282043 24.10375215 -20.4598394 17.13069838 -18.4296875 10.36352539 C-18.1409375 9.62102539 -17.8521875 8.87852539 -17.5546875 8.11352539 C-16.8946875 8.11352539 -16.2346875 8.11352539 -15.5546875 8.11352539 C-15.2246875 7.12352539 -14.8946875 6.13352539 -14.5546875 5.11352539 C-13.8946875 4.78352539 -13.2346875 4.45352539 -12.5546875 4.11352539 C-12.2246875 3.12352539 -11.8946875 2.13352539 -11.5546875 1.11352539 C-7.68463143 -0.1764933 -4.03219401 -0.01754923 0 0 Z M89.4453125 5.11352539 C90.4453125 7.11352539 90.4453125 7.11352539 90.4453125 7.11352539 Z M-2.5546875 17.11352539 C-2.17564542 20.40428536 -2.17564542 20.40428536 -0.5546875 23.11352539 C1.77192053 23.21376474 4.06885018 23.24971747 6.39599609 23.24291992 C7.4862635 23.2455484 7.4862635 23.2455484 8.59855652 23.24822998 C11.01364494 23.25264952 13.42866076 23.24970955 15.84375 23.24633789 C17.51665257 23.24701105 19.18955504 23.24798117 20.86245728 23.24923706 C24.37478564 23.25071429 27.88708864 23.24855922 31.39941406 23.24389648 C35.90442114 23.23820796 40.40936853 23.24147247 44.9143734 23.24746895 C48.37157644 23.25108138 51.82876532 23.24993267 55.28596878 23.24734116 C56.94697705 23.24667332 58.6079866 23.24749531 60.26899338 23.24982071 C62.59131017 23.25235742 64.91353026 23.24849181 67.23583984 23.24291992 C67.92478836 23.24494415 68.61373688 23.24696838 69.32356262 23.24905396 C72.31735967 23.23573307 74.57855075 23.06911264 77.4453125 22.11352539 C77.10086369 19.64085774 77.10086369 19.64085774 76.4453125 17.11352539 C73.5171623 15.64945029 70.57424492 15.97472994 67.36523438 15.98413086 C66.63663712 15.98237854 65.90803986 15.98062622 65.15736389 15.9788208 C62.74290604 15.97441048 60.32852113 15.9773374 57.9140625 15.98071289 C56.24019354 15.98003962 54.56632468 15.97906939 52.89245605 15.97781372 C49.38190786 15.97633786 45.87138509 15.97848773 42.36083984 15.9831543 C37.854642 15.98885152 33.34850371 15.98557192 28.84230804 15.97958183 C25.38514759 15.97597321 21.92800133 15.9771162 18.47084045 15.97970963 C16.80900567 15.98037806 15.1471696 15.97955337 13.4853363 15.97723007 C11.16531956 15.97469864 8.8454001 15.9785511 6.52539062 15.98413086 C5.4889315 15.98109451 5.4889315 15.98109451 4.43153381 15.97799683 C0.81613623 15.95371036 0.81613623 15.95371036 -2.5546875 17.11352539 Z " fill="#FAFAFA" transform="translate(218.5546875,471.886474609375)"/>
<path d="M0 0 C1.19894897 0.00616333 1.19894897 0.00616333 2.42211914 0.01245117 C3.75110229 0.01438477 3.75110229 0.01438477 5.10693359 0.01635742 C6.04754639 0.02924805 6.98815918 0.04213867 7.95727539 0.05541992 C8.90626709 0.06186523 9.85525879 0.06831055 10.83300781 0.07495117 C17.26313673 0.14543644 23.63789611 0.40595215 30.01977539 1.24291992 C30.01977539 1.90291992 30.01977539 2.56291992 30.01977539 3.24291992 C31.28821289 3.15010742 31.28821289 3.15010742 32.58227539 3.05541992 C36.81171368 3.28611656 39.25780455 4.32505244 43.01977539 6.24291992 C43.51477539 7.23291992 43.51477539 7.23291992 44.01977539 8.24291992 C45.16446289 8.21198242 45.16446289 8.21198242 46.33227539 8.18041992 C50.47541339 8.27677197 52.25625853 9.35925016 55.01977539 12.24291992 C55.67977539 12.57291992 56.33977539 12.90291992 57.01977539 13.24291992 C59.02592673 14.56697981 61.02646697 15.89960338 63.01977539 17.24291992 C63.01977539 16.58291992 63.01977539 15.92291992 63.01977539 15.24291992 C65.01977539 15.24291992 65.01977539 15.24291992 66.39086914 16.52416992 C66.9284082 17.09135742 67.46594727 17.65854492 68.01977539 18.24291992 C70.05938294 20.02000372 72.11790442 21.77317474 74.17993164 23.52416992 C76.01977539 25.24291992 76.01977539 25.24291992 78.01977539 28.24291992 C78.67977539 27.58291992 79.33977539 26.92291992 80.01977539 26.24291992 C80.51477539 28.22291992 80.51477539 28.22291992 81.01977539 30.24291992 C80.35977539 30.57291992 79.69977539 30.90291992 79.01977539 31.24291992 C80.00977539 31.90291992 80.99977539 32.56291992 82.01977539 33.24291992 C82.51477539 32.25291992 82.51477539 32.25291992 83.01977539 31.24291992 C85.83274875 32.6494066 86.4735089 34.50721766 88.01977539 37.24291992 C88.35364258 37.79592773 88.68750977 38.34893555 89.03149414 38.91870117 C90.76931044 41.83228909 92.05435804 44.35277069 93.08227539 47.61791992 C93.39165039 48.48416992 93.70102539 49.35041992 94.01977539 50.24291992 C95.50477539 50.73791992 95.50477539 50.73791992 97.01977539 51.24291992 C97.74848011 53.55762904 98.41217057 55.89351462 99.01977539 58.24291992 C99.67977539 59.23291992 100.33977539 60.22291992 101.01977539 61.24291992 C100.35977539 61.24291992 99.69977539 61.24291992 99.01977539 61.24291992 C99.01977539 62.23291992 99.01977539 63.22291992 99.01977539 64.24291992 C100.50477539 64.73791992 100.50477539 64.73791992 102.01977539 65.24291992 C102.23633789 66.72791992 102.23633789 66.72791992 102.45727539 68.24291992 C102.55008789 68.87456055 102.64290039 69.50620117 102.73852539 70.15698242 C102.93120292 71.58600746 103.09655157 73.01890773 103.23852539 74.45385742 C103.43435434 76.39116527 103.72119998 78.31876727 104.01977539 80.24291992 C104.67977539 80.57291992 105.33977539 80.90291992 106.01977539 81.24291992 C106.7030773 85.87776966 106.8136195 90.56514461 107.01977539 95.24291992 C107.10098633 96.69891602 107.10098633 96.69891602 107.18383789 98.18432617 C107.35239707 103.2027926 107.27718487 107.14488864 104.01977539 111.24291992 C100.55489924 112.10913896 97.57442532 112.24291992 94.01977539 112.24291992 C91.47621646 110.52227712 90.20985957 109.15969758 89.57836914 106.11401367 C89.41773383 104.56630517 89.28864437 103.01490525 89.19555664 101.46166992 C89.08412895 99.26856186 89.08412895 99.26856186 88.52758789 97.29370117 C87.91811888 94.83238402 87.75753331 92.45914129 87.58227539 89.93041992 C87.20331667 85.42502179 86.44683433 81.52409675 85.01977539 77.24291992 C84.01977539 74.24291992 84.01977539 74.24291992 84.01977539 71.24291992 C83.02977539 71.24291992 82.03977539 71.24291992 81.01977539 71.24291992 C80.89602539 70.33541992 80.77227539 69.42791992 80.64477539 68.49291992 C80.09478277 65.63295828 79.55613642 63.68302274 78.01977539 61.24291992 C77.35977539 60.91291992 76.69977539 60.58291992 76.01977539 60.24291992 C75.39477539 57.68041992 75.39477539 57.68041992 75.01977539 55.24291992 C73.69977539 55.24291992 72.37977539 55.24291992 71.01977539 55.24291992 C70.01977539 52.24291992 70.01977539 52.24291992 70.01977539 50.24291992 C68.53477539 49.74791992 68.53477539 49.74791992 67.01977539 49.24291992 C67.67977539 49.24291992 68.33977539 49.24291992 69.01977539 49.24291992 C68.11350756 47.94393602 67.19428002 46.65398825 66.26977539 45.36791992 C65.75930664 44.64862305 65.24883789 43.92932617 64.72290039 43.18823242 C62.93168655 41.14230469 61.44996084 40.37632574 59.01977539 39.24291992 C58.68977539 38.58291992 58.35977539 37.92291992 58.01977539 37.24291992 C57.35977539 37.24291992 56.69977539 37.24291992 56.01977539 37.24291992 C54.01977539 35.24291992 54.01977539 35.24291992 53.20727539 33.24291992 C51.56926073 30.48415839 50.03831184 30.29284564 47.01977539 29.24291992 C44.92704071 28.20659449 42.85784346 27.13131505 40.78930664 26.04760742 C39.04032684 25.10493514 39.04032684 25.10493514 37.01977539 25.24291992 C37.01977539 24.58291992 37.01977539 23.92291992 37.01977539 23.24291992 C36.29790039 23.26354492 35.57602539 23.28416992 34.83227539 23.30541992 C27.9288663 23.15201083 27.9288663 23.15201083 25.01977539 20.24291992 C22.67627201 19.62205861 22.67627201 19.62205861 19.89477539 19.24291992 C18.83129883 19.07663086 17.76782227 18.9103418 16.67211914 18.73901367 C14.03811128 18.38123934 11.41563619 18.05997207 8.77368164 17.77807617 C8.05776855 17.69879883 7.34185547 17.61952148 6.60424805 17.5378418 C5.19243076 17.38500463 3.77927015 17.24402762 2.36499023 17.1159668 C-0.46766255 16.8104915 -2.57206045 16.52863484 -4.93334961 14.87573242 C-6.5322193 12.38197298 -6.17223864 10.12313045 -5.98022461 7.24291992 C-5.32022461 7.24291992 -4.66022461 7.24291992 -3.98022461 7.24291992 C-4.02147461 6.45916992 -4.06272461 5.67541992 -4.10522461 4.86791992 C-3.95237279 1.65803162 -3.31185295 0.40627465 0 0 Z M82.01977539 33.24291992 C82.01977539 33.90291992 82.01977539 34.56291992 82.01977539 35.24291992 C82.67977539 35.24291992 83.33977539 35.24291992 84.01977539 35.24291992 C84.01977539 34.58291992 84.01977539 33.92291992 84.01977539 33.24291992 C83.35977539 33.24291992 82.69977539 33.24291992 82.01977539 33.24291992 Z M89.01977539 42.24291992 C90.01977539 44.24291992 90.01977539 44.24291992 90.01977539 44.24291992 Z " fill="#EEEEEE" transform="translate(251.980224609375,143.757080078125)"/>
<path d="M0 0 C0.33 0.99 0.66 1.98 1 3 C1.66 2.67 2.32 2.34 3 2 C5.33294775 1.95758277 7.66702567 1.95907063 10 2 C10.99 2 11.98 2 13 2 C13.33 3.32 13.66 4.64 14 6 C14.99 6 15.98 6 17 6 C18.6875 8.5 18.6875 8.5 20 11 C19.34 11 18.68 11 18 11 C18.99 12.485 18.99 12.485 20 14 C20 14.99 20 15.98 20 17 C20.804375 17.268125 21.60875 17.53625 22.4375 17.8125 C23.283125 18.204375 24.12875 18.59625 25 19 C25.33 19.99 25.66 20.98 26 22 C26.33 22.33 26.66 22.66 27 23 C27.89975029 24.4642433 28.77079822 25.94622593 29.625 27.4375 C30.09164062 28.24058594 30.55828125 29.04367188 31.0390625 29.87109375 C31.51472656 30.92490234 31.51472656 30.92490234 32 32 C31.505 32.99 31.505 32.99 31 34 C32.32 34.33 33.64 34.66 35 35 C35.495 38.465 35.495 38.465 36 42 C36.66 42 37.32 42 38 42 C38.495 44.475 38.495 44.475 39 47 C39.99 47.33 40.98 47.66 42 48 C44.47116248 52.29201904 44.07627197 56.19486578 44 61 C44.3062434 62.33981486 44.63451555 63.67511887 45 65 C45.03786901 66.66623639 45.04627845 68.33397597 45 70 C41.535 70.495 41.535 70.495 38 71 C37.67 70.34 37.34 69.68 37 69 C35.02477154 67.95191959 33.02518491 66.9479589 31 66 C31 65.34 31 64.68 31 64 C30.01 64 29.02 64 28 64 C27.54625 62.865625 27.0925 61.73125 26.625 60.5625 C25.42904194 56.95278308 25.42904194 56.95278308 23 56 C23 55.34 23 54.68 23 54 C21.515 53.505 21.515 53.505 20 53 C20 52.01 20 51.02 20 50 C19.05021103 47.84971696 19.05021103 47.84971696 18 46 C17.01 46 16.02 46 15 46 C14.7525 45.154375 14.505 44.30875 14.25 43.4375 C12.86026373 39.61572526 11.08879162 36.48131937 9 33 C8.34 33 7.68 33 7 33 C5.9375 31.125 5.9375 31.125 5 29 C5.33 28.34 5.66 27.68 6 27 C5.34 27 4.68 27 4 27 C4 25.68 4 24.36 4 23 C3.34 23 2.68 23 2 23 C1.67 22.34 1.34 21.68 1 21 C0.34 20.67 -0.32 20.34 -1 20 C-0.67 19.34 -0.34 18.68 0 18 C-0.66 17.443125 -1.32 16.88625 -2 16.3125 C-4 14 -4 14 -4.375 11.5 C-3.99209264 8.9472843 -3.30938452 7.20958638 -2 5 C-1.34 5 -0.68 5 0 5 C-0.33 4.01 -0.66 3.02 -1 2 C-0.67 1.34 -0.34 0.68 0 0 Z M36 65 C36.66 65.66 37.32 66.32 38 67 C38.33 66.34 38.66 65.68 39 65 C38.01 65 37.02 65 36 65 Z " fill="#E8E8E8" transform="translate(124,34)"/>
<path d="M0 0 C2.43993512 1.31888385 3.65336529 2.19118567 4.75 4.75 C5.67666667 13.09 5.67666667 13.09 3.1875 16.4375 C1 18 1 18 -2 18 C-2.33 18.66 -2.66 19.32 -3 20 C-3.99 20 -4.98 20 -6 20 C-6.33 20.66 -6.66 21.32 -7 22 C-8.92713818 23.76164986 -10.96823666 25.35729773 -13 27 C-12.505 27.99 -12.505 27.99 -12 29 C-13.29009643 29.50403768 -14.58213789 30.00309926 -15.875 30.5 C-16.95394531 30.91765625 -16.95394531 30.91765625 -18.0546875 31.34375 C-20 32 -20 32 -22 32 C-22.495 31.01 -22.495 31.01 -23 30 C-23.99 30.495 -23.99 30.495 -25 31 C-24.505 31.99 -24.505 31.99 -24 33 C-24.495 33.99 -24.495 33.99 -25 35 C-26.8203125 35.2734375 -26.8203125 35.2734375 -29.125 35.375 C-34.00922836 35.78918256 -36.93668357 37.31994023 -41 40 C-38.36 40.66 -35.72 41.32 -33 42 C-33 42.66 -33 43.32 -33 44 C-33.91523438 43.98839844 -34.83046875 43.97679687 -35.7734375 43.96484375 C-36.96195312 43.95582031 -38.15046875 43.94679687 -39.375 43.9375 C-40.55835938 43.92589844 -41.74171875 43.91429687 -42.9609375 43.90234375 C-45.91921521 43.78533407 -45.91921521 43.78533407 -48 45 C-55.30434783 45.46376812 -55.30434783 45.46376812 -57.875 43.75 C-58.24625 43.1725 -58.6175 42.595 -59 42 C-59.37125 41.443125 -59.7425 40.88625 -60.125 40.3125 C-61.40888757 36.91936856 -61.63928364 33.60716361 -62 30 C-60.35 29.67 -58.7 29.34 -57 29 C-57 28.34 -57 27.68 -57 27 C-54.69 26.34 -52.38 25.68 -50 25 C-50 24.34 -50 23.68 -50 23 C-49.34 22.67 -48.68 22.34 -48 22 C-48.33 21.34 -48.66 20.68 -49 20 C-47.02 20.33 -45.04 20.66 -43 21 C-43 20.34 -43 19.68 -43 19 C-42.195625 18.731875 -41.39125 18.46375 -40.5625 18.1875 C-39.2940625 17.5996875 -39.2940625 17.5996875 -38 17 C-37.67 16.01 -37.34 15.02 -37 14 C-36.484375 14.2475 -35.96875 14.495 -35.4375 14.75 C-31.53477349 15.15027964 -29.25833935 13.06779228 -26 11 C-26 9.68 -26 8.36 -26 7 C-25.34 7 -24.68 7 -24 7 C-24 7.66 -24 8.32 -24 9 C-20.27385847 7.88145414 -20.27385847 7.88145414 -18 5 C-15.6875 4.4375 -15.6875 4.4375 -13 4 C-10.81296615 3.62092718 -10.81296615 3.62092718 -9 3 C-8.67 2.34 -8.34 1.68 -8 1 C-5.19084526 -0.40457737 -3.11189466 -0.24895157 0 0 Z " fill="#ECECEC" transform="translate(465,121)"/>
<path d="M0 0 C1.48831242 0.00667405 2.97660807 0.01863442 4.46484375 0.03515625 C5.22345703 0.03966797 5.98207031 0.04417969 6.76367188 0.04882812 C8.64326246 0.06064945 10.52281274 0.07858547 12.40234375 0.09765625 C12.40234375 1.08765625 12.40234375 2.07765625 12.40234375 3.09765625 C13.39234375 3.42765625 14.38234375 3.75765625 15.40234375 4.09765625 C15.07234375 5.41765625 14.74234375 6.73765625 14.40234375 8.09765625 C15.06234375 8.09765625 15.72234375 8.09765625 16.40234375 8.09765625 C15.74234375 11.39765625 15.08234375 14.69765625 14.40234375 18.09765625 C13.74234375 18.09765625 13.08234375 18.09765625 12.40234375 18.09765625 C12.40234375 20.40765625 12.40234375 22.71765625 12.40234375 25.09765625 C11.08234375 24.76765625 9.76234375 24.43765625 8.40234375 24.09765625 C9.06234375 22.77765625 9.72234375 21.45765625 10.40234375 20.09765625 C9.41234375 20.09765625 8.42234375 20.09765625 7.40234375 20.09765625 C7.21671875 21.55171875 7.21671875 21.55171875 7.02734375 23.03515625 C6.82109375 24.04578125 6.61484375 25.05640625 6.40234375 26.09765625 C5.41234375 26.59265625 5.41234375 26.59265625 4.40234375 27.09765625 C3.7176171 28.98530528 3.7176171 28.98530528 3.27734375 31.16015625 C3.10976563 31.89363281 2.9421875 32.62710938 2.76953125 33.3828125 C2.58777344 34.23166016 2.58777344 34.23166016 2.40234375 35.09765625 C1.44328125 35.25234375 1.44328125 35.25234375 0.46484375 35.41015625 C-0.21578125 35.63703125 -0.89640625 35.86390625 -1.59765625 36.09765625 C-1.92765625 37.08765625 -2.25765625 38.07765625 -2.59765625 39.09765625 C-3.36078125 39.84015625 -4.12390625 40.58265625 -4.91015625 41.34765625 C-10.17654129 46.73651536 -12.01828604 51.92974531 -13.59765625 59.09765625 C-13.92765625 59.75765625 -14.25765625 60.41765625 -14.59765625 61.09765625 C-15.25765625 61.09765625 -15.91765625 61.09765625 -16.59765625 61.09765625 C-17.25765625 62.41765625 -17.91765625 63.73765625 -18.59765625 65.09765625 C-19.25765625 64.76765625 -19.91765625 64.43765625 -20.59765625 64.09765625 C-20.59765625 63.43765625 -20.59765625 62.77765625 -20.59765625 62.09765625 C-21.22414063 62.12085938 -21.850625 62.1440625 -22.49609375 62.16796875 C-23.31335938 62.18601563 -24.130625 62.2040625 -24.97265625 62.22265625 C-25.78476562 62.24585938 -26.596875 62.2690625 -27.43359375 62.29296875 C-29.59765625 62.09765625 -29.59765625 62.09765625 -31.59765625 60.09765625 C-33.9780425 53.52325614 -33.52618821 50.40526356 -30.59765625 44.09765625 C-29.93765625 44.09765625 -29.27765625 44.09765625 -28.59765625 44.09765625 C-28.35015625 43.35515625 -28.10265625 42.61265625 -27.84765625 41.84765625 C-26.48615541 38.8523544 -24.90486741 37.40486741 -22.59765625 35.09765625 C-21.53753682 33.12886302 -20.52294776 31.13329758 -19.59765625 29.09765625 C-18.93765625 29.09765625 -18.27765625 29.09765625 -17.59765625 29.09765625 C-17.61828125 28.29328125 -17.63890625 27.48890625 -17.66015625 26.66015625 C-17.59765625 24.09765625 -17.59765625 24.09765625 -16.59765625 23.09765625 C-16.26765625 22.10765625 -15.93765625 21.11765625 -15.59765625 20.09765625 C-14.60765625 20.09765625 -13.61765625 20.09765625 -12.59765625 20.09765625 C-12.26765625 19.10765625 -11.93765625 18.11765625 -11.59765625 17.09765625 C-10.93765625 17.09765625 -10.27765625 17.09765625 -9.59765625 17.09765625 C-9.59765625 15.77765625 -9.59765625 14.45765625 -9.59765625 13.09765625 C-7.93098958 11.43098958 -6.26432292 9.76432292 -4.59765625 8.09765625 C-3.26202014 4.93064202 -3.26202014 4.93064202 -2.59765625 2.09765625 C-3.25765625 1.76765625 -3.91765625 1.43765625 -4.59765625 1.09765625 C-3.59765625 0.09765625 -3.59765625 0.09765625 0 0 Z M13.40234375 13.09765625 C12.74234375 13.75765625 12.08234375 14.41765625 11.40234375 15.09765625 C12.39234375 15.09765625 13.38234375 15.09765625 14.40234375 15.09765625 C14.07234375 14.43765625 13.74234375 13.77765625 13.40234375 13.09765625 Z M0.40234375 31.09765625 C0.07234375 31.75765625 -0.25765625 32.41765625 -0.59765625 33.09765625 C0.06234375 33.09765625 0.72234375 33.09765625 1.40234375 33.09765625 C1.07234375 32.43765625 0.74234375 31.77765625 0.40234375 31.09765625 Z M-15.59765625 55.09765625 C-16.25765625 56.41765625 -16.91765625 57.73765625 -17.59765625 59.09765625 C-16.93765625 59.09765625 -16.27765625 59.09765625 -15.59765625 59.09765625 C-15.26765625 57.77765625 -14.93765625 56.45765625 -14.59765625 55.09765625 C-14.92765625 55.09765625 -15.25765625 55.09765625 -15.59765625 55.09765625 Z " fill="#EDEDED" transform="translate(379.59765625,38.90234375)"/>
<path d="M0 0 C0 0.66 0 1.32 0 2 C0.99 2.33 1.98 2.66 3 3 C3 3.66 3 4.32 3 5 C3.886875 5.28875 4.77375 5.5775 5.6875 5.875 C8.50382424 6.83148748 11.25083156 7.86798946 14 9 C14.33 7.68 14.66 6.36 15 5 C15.33 5.99 15.66 6.98 16 8 C17.98248715 8.71706982 19.98415349 9.38290413 22 10 C24 12 24 12 24 15 C24.99 14.67 25.98 14.34 27 14 C27.23460937 14.62390625 27.46921875 15.2478125 27.7109375 15.890625 C29.36823075 18.60255941 30.6141599 18.88975997 33.625 19.75 C34.44226563 19.99234375 35.25953125 20.2346875 36.1015625 20.484375 C36.72804687 20.65453125 37.35453125 20.8246875 38 21 C38 21.66 38 22.32 38 23 C38.94875 23.103125 39.8975 23.20625 40.875 23.3125 C44 24 44 24 46 27 C46.66 27 47.32 27 48 27 C49.57119596 29.84496387 50.39860257 32.27711867 50.8125 35.5 C50.97685547 36.62921875 50.97685547 36.62921875 51.14453125 37.78125 C50.94826318 40.79423008 50.20372724 41.94746403 48 44 C42.69837732 45.02709499 37.57312303 45.01597529 33 42.0625 C32.34 41.381875 31.68 40.70125 31 40 C28.81785432 39.22166466 28.81785432 39.22166466 27 39 C27 38.34 27 37.68 27 37 C26.0925 36.71125 25.185 36.4225 24.25 36.125 C21.67797092 35.23468224 19.38653234 34.28505587 17 33 C17 32.34 17 31.68 17 31 C16.05125 31.04125 15.1025 31.0825 14.125 31.125 C10.53428574 30.98137143 10.3857537 30.3857537 8 28 C6.68 28 5.36 28 4 28 C4 27.34 4 26.68 4 26 C1.96894458 24.18655766 0.48381941 23.11058729 -2.1875 22.5 C-2.785625 22.335 -3.38375 22.17 -4 22 C-4.33 21.01 -4.66 20.02 -5 19 C-5.78375 18.855625 -6.5675 18.71125 -7.375 18.5625 C-10 18 -10 18 -12 17 C-12 16.34 -12 15.68 -12 15 C-12.99 14.67 -13.98 14.34 -15 14 C-15.16955446 5.18316832 -15.16955446 5.18316832 -14 3 C-9.14886197 0.2833627 -5.63000273 -0.34469404 0 0 Z M16 10 C16.33 10.66 16.66 11.32 17 12 C17.33 11.34 17.66 10.68 18 10 C17.34 10 16.68 10 16 10 Z M18 12 C19.485 12.99 19.485 12.99 21 14 C21 13.34 21 12.68 21 12 C20.01 12 19.02 12 18 12 Z " fill="#EDEDED" transform="translate(57,121)"/>
<path d="M0 0 C1.7290774 -0.02725341 3.45828176 -0.04650987 5.1875 -0.0625 C6.15042969 -0.07410156 7.11335938 -0.08570313 8.10546875 -0.09765625 C10.85576513 -0.00486622 13.32479591 0.37888315 16 1 C15.67 1.99 15.34 2.98 15 4 C14.91590794 6.02390596 14.89273064 8.05054249 14.90234375 10.07617188 C14.90564697 11.32756958 14.9089502 12.57896729 14.91235352 13.86828613 C14.91853195 14.87043907 14.91853195 14.87043907 14.92483521 15.89283752 C14.93760414 17.98581968 14.94411573 20.07873842 14.94897461 22.17175293 C14.96040158 26.61453038 14.97964296 31.05725566 15 35.5 C15.02358966 40.6482354 15.04398713 45.79644069 15.05593872 50.94471741 C15.06242403 53.00709029 15.07493181 55.06937134 15.08764648 57.13171387 C15.09094971 58.38311157 15.09425293 59.63450928 15.09765625 60.92382812 C15.10551147 62.5790448 15.10551147 62.5790448 15.11352539 64.2677002 C15 67 15 67 14 70 C9.94085397 71.79474638 6.22052438 72.46743487 2.0625 70.875 C-0.81424706 68.2597754 -1.88764305 66.240788 -2.24050903 62.34399414 C-2.2338472 60.82986938 -2.2338472 60.82986938 -2.22705078 59.28515625 C-2.22689972 58.13716553 -2.22674866 56.9891748 -2.22659302 55.80639648 C-2.21627045 54.57091064 -2.20594788 53.3354248 -2.1953125 52.0625 C-2.1924826 50.79027588 -2.18965271 49.51805176 -2.18673706 48.20727539 C-2.17743847 44.82870111 -2.15948908 41.45039818 -2.1373291 38.07189941 C-2.11690181 34.63910236 -2.10772569 31.20627782 -2.09765625 27.7734375 C-2.07797929 21.73423033 -2.04954891 15.69513636 -2.01345825 9.65600586 C-2.00221615 7.43736119 -2 5.21867316 -2 3 C-1.34 2.67 -0.68 2.34 0 2 C0 1.34 0 0.68 0 0 Z " fill="#FCFCFC" transform="translate(249,0)"/>
<path d="M0 0 C34.32 0 68.64 0 104 0 C104 0.99 104 1.98 104 3 C69.68 3 35.36 3 0 3 C0 2.01 0 1.02 0 0 Z " fill="#000000" transform="translate(204,395)"/>
<path d="M0 0 C1.32 0 2.64 0 4 0 C3.67 1.32 3.34 2.64 3 4 C1.75020859 3.99777939 0.50041718 3.99555878 -0.7872467 3.99327087 C-12.5726975 3.97298793 -24.35814475 3.958003 -36.14360905 3.94818783 C-42.20243623 3.94297211 -48.2612493 3.93589823 -54.32006836 3.92456055 C-60.16853918 3.91368513 -66.01699645 3.90771328 -71.86547661 3.90512276 C-74.09535371 3.90327691 -76.32523008 3.89967245 -78.55510139 3.89426994 C-81.68136313 3.88699778 -84.80756904 3.88601167 -87.93383789 3.88647461 C-89.31272438 3.8810817 -89.31272438 3.8810817 -90.71946716 3.87557983 C-95.58907798 3.88336861 -100.19868518 4.17565244 -105 5 C-105 3.68 -105 2.36 -105 1 C-70.35 1 -35.7 1 0 1 C0 0.67 0 0.34 0 0 Z " fill="#000000" transform="translate(306,441)"/>
<path d="M0 0 C0.33 0 0.66 0 1 0 C1 18.81 1 37.62 1 57 C0.67 57 0.34 57 0 57 C0 38.19 0 19.38 0 0 Z " fill="#000000" transform="translate(245,7)"/>
<path d="M0 0 C2.78632322 2.78632322 2 5.16465849 2 9 C-0.31 9.33 -2.62 9.66 -5 10 C-5.33 9.34 -5.66 8.68 -6 8 C-8.01669827 6.86649466 -8.01669827 6.86649466 -10 6 C-9.67 5.34 -9.34 4.68 -9 4 C-8.443125 4.268125 -7.88625 4.53625 -7.3125 4.8125 C-6.1678125 4.9053125 -6.1678125 4.9053125 -5 5 C-2.22877725 2.64573501 -2.22877725 2.64573501 0 0 Z " fill="#000000" transform="translate(167,95)"/>
<path d="M0 0 C1.98 0 3.96 0 6 0 C6 1.65 6 3.3 6 5 C3.20129973 6.39935013 1.09501208 6.25265405 -2 6 C-3.875 4.5 -3.875 4.5 -5 3 C-3.35 2.67 -1.7 2.34 0 2 C0 1.34 0 0.68 0 0 Z " fill="#000000" transform="translate(203,139)"/>
<path d="M0 0 C0.33 0 0.66 0 1 0 C1 4.62 1 9.24 1 14 C-0.65 14 -2.3 14 -4 14 C-4.6875 12.25 -4.6875 12.25 -5 10 C-4.04422943 8.63461347 -3.03647024 7.30518475 -2 6 C-1.27648573 4.01985568 -0.59734611 2.02178685 0 0 Z " fill="#000000" transform="translate(383,282)"/>
<path d="M0 0 C0.66 0.33 1.32 0.66 2 1 C0.63855967 6.19822672 -1.46730171 9.09543873 -5 13 C-5.66 11.68 -6.32 10.36 -7 9 C-5.68 8.67 -4.36 8.34 -3 8 C-3.2475 7.4225 -3.495 6.845 -3.75 6.25 C-3.8325 5.5075 -3.915 4.765 -4 4 C-2.0625 1.75 -2.0625 1.75 0 0 Z " fill="#000000" transform="translate(167,171)"/>
<path d="M0 0 C3.85259708 1.28419903 4.08926942 2.48425572 6 6 C6.72692421 7.27211736 7.45614295 8.54292596 8.1875 9.8125 C9.0846875 11.3903125 9.0846875 11.3903125 10 13 C9.01 13 8.02 13 7 13 C5.96210419 11.35666496 4.96432076 9.68756133 4 8 C3.01 7.34 2.02 6.68 1 6 C1.33 4.68 1.66 3.36 2 2 C1.34 2 0.68 2 0 2 C0 1.34 0 0.68 0 0 Z " fill="#000000" transform="translate(334,175)"/>
<path d="M0 0 C1.36511719 0.29197266 1.36511719 0.29197266 2.7578125 0.58984375 C3.45648438 0.74582031 4.15515625 0.90179688 4.875 1.0625 C4.875 1.7225 4.875 2.3825 4.875 3.0625 C0.915 3.0625 -3.045 3.0625 -7.125 3.0625 C-7.125 2.0725 -7.125 1.0825 -7.125 0.0625 C-4.4030754 -1.2984623 -2.9418043 -0.64116248 0 0 Z " fill="#000000" transform="translate(427.125,161.9375)"/>
<path d="M0 0 C0.66 0.33 1.32 0.66 2 1 C2 1.99 2 2.98 2 4 C0.70990357 4.50403768 -0.58213789 5.00309926 -1.875 5.5 C-2.95394531 5.91765625 -2.95394531 5.91765625 -4.0546875 6.34375 C-6 7 -6 7 -8 7 C-7.9375 5.1875 -7.9375 5.1875 -7 3 C-3.5625 1.1875 -3.5625 1.1875 0 0 Z " fill="#000000" transform="translate(451,146)"/>
<path d="M0 0 C0 0.33 0 0.66 0 1 C-8.83223535 2.19354532 -17.15967082 1.77546747 -26 1 C-26 0.67 -26 0.34 -26 0 C-17.17751293 -0.84831606 -8.80872193 -1.04865737 0 0 Z " fill="#000000" transform="translate(267,127)"/>
<path d="M0 0 C0.33 0 0.66 0 1 0 C0.125 6.75 0.125 6.75 -1 9 C-1.66 9 -2.32 9 -3 9 C-3.66 10.32 -4.32 11.64 -5 13 C-5.66 12.67 -6.32 12.34 -7 12 C-6.34 10.35 -5.68 8.7 -5 7 C-4.01 7 -3.02 7 -2 7 C-1.34 4.69 -0.68 2.38 0 0 Z " fill="#000000" transform="translate(366,91)"/>
<path d="M0 0 C6.15222436 0.43173504 9.81917949 1.65405342 15 5 C15 5.33 15 5.66 15 6 C12.69 5.67 10.38 5.34 8 5 C8 4.34 8 3.68 8 3 C7.05125 2.87625 6.1025 2.7525 5.125 2.625 C2 2 2 2 0 0 Z " fill="#000000" transform="translate(305,118)"/>
<path d="M0 0 C0.99 0 1.98 0 3 0 C3 0.99 3 1.98 3 3 C2.34 3 1.68 3 1 3 C1 5.31 1 7.62 1 10 C-0.32 9.67 -1.64 9.34 -3 9 C-2.649375 8.401875 -2.29875 7.80375 -1.9375 7.1875 C-0.66695302 4.89186786 -0.66695302 4.89186786 -2 2 C-1.34 2 -0.68 2 0 2 C0 1.34 0 0.68 0 0 Z " fill="#000000" transform="translate(391,54)"/>
<path d="M0 0 C0.33 0.99 0.66 1.98 1 3 C2.98248715 3.71706982 4.98415349 4.38290413 7 5 C7.66 5.66 8.32 6.32 9 7 C8.01 7.66 7.02 8.32 6 9 C6 8.34 6 7.68 6 7 C5.401875 6.87625 4.80375 6.7525 4.1875 6.625 C2 6 2 6 -1 4 C-0.67 2.68 -0.34 1.36 0 0 Z " fill="#000000" transform="translate(72,126)"/>
<path d="M0 0 C0.66 0.33 1.32 0.66 2 1 C1.67 2.65 1.34 4.3 1 6 C-0.9375 5.6875 -0.9375 5.6875 -3 5 C-3.33 4.01 -3.66 3.02 -4 2 C-2.125 0.9375 -2.125 0.9375 0 0 Z " fill="#000000" transform="translate(175,162)"/>
<path d="M0 0 C3.36591866 1.44253657 5.51047079 3.33264727 8 6 C7.01 6 6.02 6 5 6 C4.67 5.34 4.34 4.68 4 4 C1.98330173 2.86649466 1.98330173 2.86649466 0 2 C0 1.34 0 0.68 0 0 Z " fill="#000000" transform="translate(303,472)"/>
<path d="M0 0 C0.99 0.33 1.98 0.66 3 1 C1.95125002 3.62187494 1.35068687 4.79371361 -1.125 6.25 C-1.74375 6.4975 -2.3625 6.745 -3 7 C-3 6.34 -3 5.68 -3 5 C-2.34 5 -1.68 5 -1 5 C-0.67 3.35 -0.34 1.7 0 0 Z " fill="#000000" transform="translate(342,346)"/>
<path d="M0 0 C1.65 0 3.3 0 5 0 C5 1.32 5 2.64 5 4 C1.125 2.25 1.125 2.25 0 0 Z " fill="#000000" transform="translate(307,471)"/>
<path d="M0 0 C0.33 0.99 0.66 1.98 1 3 C0.01 3.99 -0.98 4.98 -2 6 C-2 3 -2 3 0 0 Z " fill="#000000" transform="translate(373,82)"/>
<path d="M0 0 C0.33 0.66 0.66 1.32 1 2 C0.67 2.66 0.34 3.32 0 4 C-0.99 3.67 -1.98 3.34 -3 3 C-2.01 2.01 -1.02 1.02 0 0 Z " fill="#000000" transform="translate(181,155)"/>
<path d="M0 0 C0.99 0.33 1.98 0.66 3 1 C2.67 1.66 2.34 2.32 2 3 C1.34 3 0.68 3 0 3 C0 2.01 0 1.02 0 0 Z " fill="#000000" transform="translate(350,338)"/>
<path d="M0 0 C1.485 0.99 1.485 0.99 3 2 C2.67 2.66 2.34 3.32 2 4 C1.34 2.68 0.68 1.36 0 0 Z " fill="#000000" transform="translate(165,307)"/>
<path d="M0 0 C0.99 0.495 0.99 0.495 2 1 C1.67 1.99 1.34 2.98 1 4 C0.67 2.68 0.34 1.36 0 0 Z " fill="#000000" transform="translate(321,149)"/>
<path d="M0 0 C0.66 0 1.32 0 2 0 C2 0.66 2 1.32 2 2 C1.34 2 0.68 2 0 2 C0 1.34 0 0.68 0 0 Z " fill="#000000" transform="translate(323,463)"/>
<path d="M0 0 C0.66 0 1.32 0 2 0 C2 0.66 2 1.32 2 2 C1.34 2 0.68 2 0 2 C0 1.34 0 0.68 0 0 Z " fill="#000000" transform="translate(319,462)"/>
<path d="M0 0 C0.66 0.66 1.32 1.32 2 2 C1.01 1.67 0.02 1.34 -1 1 C-0.67 0.67 -0.34 0.34 0 0 Z " fill="#000000" transform="translate(323,459)"/>
<path d="M0 0 C0.99 0.495 0.99 0.495 2 1 C1.67 1.66 1.34 2.32 1 3 C0.67 2.01 0.34 1.02 0 0 Z " fill="#000000" transform="translate(173,349)"/>
<path d="M0 0 C0.66 0 1.32 0 2 0 C2 0.66 2 1.32 2 2 C1.34 2 0.68 2 0 2 C0 1.34 0 0.68 0 0 Z " fill="#000000" transform="translate(171,347)"/>
<path d="M0 0 C0.99 0.495 0.99 0.495 2 1 C1.67 1.66 1.34 2.32 1 3 C0.67 2.01 0.34 1.02 0 0 Z " fill="#000000" transform="translate(189,336)"/>
<path d="M0 0 C0.99 0.33 1.98 0.66 3 1 C2.01 1 1.02 1 0 1 C0 0.67 0 0.34 0 0 Z " fill="#000000" transform="translate(327,328)"/>
<path d="" fill="#000000" transform="translate(0,0)"/>
<path d="M0 0 C0.33 0.66 0.66 1.32 1 2 C0.34 1.67 -0.32 1.34 -1 1 C-0.67 0.67 -0.34 0.34 0 0 Z " fill="#000000" transform="translate(320,340)"/>
<path d="M0 0 C0.33 0.66 0.66 1.32 1 2 C0.34 1.67 -0.32 1.34 -1 1 C-0.67 0.67 -0.34 0.34 0 0 Z " fill="#000000" transform="translate(338,319)"/>
<path d="M0 0 C0.66 0 1.32 0 2 0 C1.67 0.66 1.34 1.32 1 2 C0.67 1.34 0.34 0.68 0 0 Z " fill="#000000" transform="translate(169,315)"/>
<path d="M0 0 C0.66 0 1.32 0 2 0 C1.67 0.66 1.34 1.32 1 2 C0.67 1.34 0.34 0.68 0 0 Z " fill="#000000" transform="translate(331,211)"/>
<path d="M0 0 C0.33 0.66 0.66 1.32 1 2 C0.34 1.67 -0.32 1.34 -1 1 C-0.67 0.67 -0.34 0.34 0 0 Z " fill="#000000" transform="translate(145,163)"/>
<path d="M0 0 C0.99 0.495 0.99 0.495 2 1 C1.01 1.495 1.01 1.495 0 2 C0 1.34 0 0.68 0 0 Z " fill="#000000" transform="translate(427,159)"/>
<path d="M0 0 C0.33 0.66 0.66 1.32 1 2 C0.34 1.67 -0.32 1.34 -1 1 C-0.67 0.67 -0.34 0.34 0 0 Z " fill="#000000" transform="translate(168,139)"/>
<path d="" fill="#000000" transform="translate(0,0)"/>
<path d="" fill="#000000" transform="translate(0,0)"/>
<path d="" fill="#000000" transform="translate(0,0)"/>
<path d="" fill="#000000" transform="translate(0,0)"/>
<path d="" fill="#000000" transform="translate(0,0)"/>
<path d="M0 0 C2 1 2 1 2 1 Z " fill="#000000" transform="translate(320,336)"/>
<path d="" fill="#000000" transform="translate(0,0)"/>
<path d="" fill="#000000" transform="translate(0,0)"/>
<path d="" fill="#000000" transform="translate(0,0)"/>
<path d="" fill="#000000" transform="translate(0,0)"/>
<path d="" fill="#000000" transform="translate(0,0)"/>
<path d="" fill="#000000" transform="translate(0,0)"/>
<path d="" fill="#000000" transform="translate(0,0)"/>
<path d="" fill="#000000" transform="translate(0,0)"/>
<path d="" fill="#000000" transform="translate(0,0)"/>
<path d="M0 0 C2 1 2 1 2 1 Z " fill="#000000" transform="translate(343,170)"/>
<path d="M0 0 C2 1 2 1 2 1 Z " fill="#000000" transform="translate(88,162)"/>
<path d="M0 0 C2 1 2 1 2 1 Z " fill="#000000" transform="translate(431,157)"/>
<path d="M0 0 C2 1 2 1 2 1 Z " fill="#000000" transform="translate(327,154)"/>
<path d="M0 0 C2 1 2 1 2 1 Z " fill="#000000" transform="translate(453,148)"/>
<path d="M0 0 C2 1 2 1 2 1 Z " fill="#000000" transform="translate(195,146)"/>
<path d="M0 0 C2 1 2 1 2 1 Z " fill="#000000" transform="translate(312,143)"/>
<path d="M0 0 C2 1 2 1 2 1 Z " fill="#000000" transform="translate(85,137)"/>
<path d="M0 0 C2 1 2 1 2 1 Z " fill="#000000" transform="translate(57,122)"/>
<path d="M0 0 C2 1 2 1 2 1 Z " fill="#000000" transform="translate(303,117)"/>
<path d="" fill="#000000" transform="translate(0,0)"/>
<path d="" fill="#000000" transform="translate(0,0)"/>
<path d="" fill="#000000" transform="translate(0,0)"/>
<path d="" fill="#000000" transform="translate(0,0)"/>
<path d="" fill="#000000" transform="translate(0,0)"/>
<path d="" fill="#000000" transform="translate(0,0)"/>
<path d="" fill="#000000" transform="translate(0,0)"/>
<path d="" fill="#000000" transform="translate(0,0)"/>
<path d="" fill="#000000" transform="translate(0,0)"/>
<path d="" fill="#000000" transform="translate(0,0)"/>
<path d="" fill="#000000" transform="translate(0,0)"/>
<path d="" fill="#000000" transform="translate(0,0)"/>
<path d="" fill="#000000" transform="translate(0,0)"/>
<path d="" fill="#000000" transform="translate(0,0)"/>
<path d="" fill="#000000" transform="translate(0,0)"/>
<path d="" fill="#000000" transform="translate(0,0)"/>
<path d="" fill="#000000" transform="translate(0,0)"/>
<path d="" fill="#000000" transform="translate(0,0)"/>
<path d="" fill="#000000" transform="translate(0,0)"/>
<path d="" fill="#000000" transform="translate(0,0)"/>
<path d="" fill="#000000" transform="translate(0,0)"/>
<path d="" fill="#000000" transform="translate(0,0)"/>
<path d="" fill="#000000" transform="translate(0,0)"/>
<path d="" fill="#000000" transform="translate(0,0)"/>
<path d="" fill="#000000" transform="translate(0,0)"/>
<path d="" fill="#000000" transform="translate(0,0)"/>
<path d="" fill="#000000" transform="translate(0,0)"/>
<path d="" fill="#000000" transform="translate(0,0)"/>
<path d="" fill="#000000" transform="translate(0,0)"/>
<path d="" fill="#000000" transform="translate(0,0)"/>
<path d="" fill="#000000" transform="translate(0,0)"/>
<path d="" fill="#000000" transform="translate(0,0)"/>
<path d="" fill="#000000" transform="translate(0,0)"/>
<path d="" fill="#000000" transform="translate(0,0)"/>
<path d="" fill="#000000" transform="translate(0,0)"/>
<path d="" fill="#000000" transform="translate(0,0)"/>
<path d="" fill="#000000" transform="translate(0,0)"/>
<path d="" fill="#000000" transform="translate(0,0)"/>
<path d="" fill="#000000" transform="translate(0,0)"/>
<path d="" fill="#000000" transform="translate(0,0)"/>
<path d="" fill="#000000" transform="translate(0,0)"/>
<path d="" fill="#000000" transform="translate(0,0)"/>
<path d="" fill="#000000" transform="translate(0,0)"/>
<path d="" fill="#000000" transform="translate(0,0)"/>
<path d="" fill="#000000" transform="translate(0,0)"/>
<path d="" fill="#000000" transform="translate(0,0)"/>
<path d="" fill="#000000" transform="translate(0,0)"/>
<path d="" fill="#000000" transform="translate(0,0)"/>
<path d="" fill="#000000" transform="translate(0,0)"/>
<path d="" fill="#000000" transform="translate(0,0)"/>
<path d="" fill="#000000" transform="translate(0,0)"/>
<path d="" fill="#000000" transform="translate(0,0)"/>
<path d="" fill="#000000" transform="translate(0,0)"/>
<path d="" fill="#000000" transform="translate(0,0)"/>
<path d="" fill="#000000" transform="translate(0,0)"/>
<path d="" fill="#000000" transform="translate(0,0)"/>
<path d="" fill="#000000" transform="translate(0,0)"/>
<path d="" fill="#000000" transform="translate(0,0)"/>
<path d="" fill="#000000" transform="translate(0,0)"/>
<path d="" fill="#000000" transform="translate(0,0)"/>
<path d="" fill="#000000" transform="translate(0,0)"/>
<path d="" fill="#000000" transform="translate(0,0)"/>
<path d="" fill="#000000" transform="translate(0,0)"/>
<path d="" fill="#000000" transform="translate(0,0)"/>
<path d="" fill="#000000" transform="translate(0,0)"/>
<path d="" fill="#000000" transform="translate(0,0)"/>
<path d="" fill="#000000" transform="translate(0,0)"/>
<path d="" fill="#000000" transform="translate(0,0)"/>
<path d="" fill="#000000" transform="translate(0,0)"/>
</svg>
