<svg width="371" height="69" viewBox="0 0 371 69" fill="none" xmlns="http://www.w3.org/2000/svg">
<path opacity="0.9" d="M225.851 67.76C225.851 67.5467 225.924 67.3667 226.071 67.22C226.217 67.0733 226.397 67 226.611 67H239.831C240.151 67 240.451 66.94 240.731 66.82C241.011 66.7 241.257 66.5333 241.471 66.32C241.684 66.1067 241.851 65.86 241.971 65.58C242.091 65.3 242.151 65 242.151 64.68C242.151 64.36 242.091 64.06 241.971 63.78C241.851 63.4867 241.684 63.2333 241.471 63.02C241.271 62.8067 241.024 62.64 240.731 62.52C240.451 62.4 240.151 62.34 239.831 62.34H229.691C229.171 62.34 228.677 62.24 228.211 62.04C227.744 61.84 227.331 61.5667 226.971 61.22C226.624 60.8733 226.351 60.4667 226.151 60C225.951 59.5333 225.851 59.0333 225.851 58.5C225.851 57.9667 225.951 57.4667 226.151 57C226.351 56.52 226.624 56.1067 226.971 55.76C227.317 55.4133 227.724 55.14 228.191 54.94C228.657 54.7267 229.157 54.62 229.691 54.62H242.911C243.124 54.62 243.304 54.6933 243.451 54.84C243.597 54.9867 243.671 55.1667 243.671 55.38C243.671 55.5933 243.597 55.7733 243.451 55.92C243.304 56.0667 243.124 56.14 242.911 56.14H229.691C229.357 56.14 229.051 56.2067 228.771 56.34C228.504 56.46 228.264 56.6267 228.051 56.84C227.851 57.04 227.691 57.28 227.571 57.56C227.451 57.84 227.384 58.14 227.371 58.46C227.424 59.1267 227.664 59.6867 228.091 60.14C228.517 60.5933 229.051 60.82 229.691 60.82H239.831C240.364 60.82 240.864 60.92 241.331 61.12C241.797 61.32 242.204 61.5933 242.551 61.94C242.897 62.2867 243.171 62.6933 243.371 63.16C243.571 63.6267 243.671 64.1267 243.671 64.66C243.671 65.1933 243.571 65.6933 243.371 66.16C243.171 66.6267 242.897 67.04 242.551 67.4C242.204 67.7467 241.797 68.02 241.331 68.22C240.864 68.42 240.364 68.52 239.831 68.52H226.611C226.397 68.52 226.217 68.4467 226.071 68.3C225.924 68.1533 225.851 67.9733 225.851 67.76Z" fill="white"/>
<path opacity="0.9" d="M194.048 67.7V55.42C194.048 55.2067 194.122 55.0267 194.268 54.88C194.415 54.7334 194.595 54.66 194.808 54.66H194.868H207.968C208.368 54.66 208.762 54.7067 209.148 54.8C209.548 54.8934 209.915 55.04 210.248 55.24C210.595 55.4267 210.908 55.66 211.188 55.94C211.468 56.2067 211.695 56.52 211.868 56.88C212.108 57.36 212.228 57.8534 212.228 58.36C212.228 58.8667 212.115 59.36 211.888 59.84C211.675 60.32 211.362 60.7267 210.948 61.06L210.528 61.36C211.035 61.72 211.442 62.18 211.748 62.74C212.068 63.3 212.228 63.9 212.228 64.54C212.228 65.1 212.115 65.62 211.888 66.1C211.662 66.58 211.355 67 210.968 67.36C210.582 67.72 210.135 68.0067 209.628 68.22C209.122 68.42 208.588 68.52 208.028 68.52H194.868H194.808C194.595 68.52 194.415 68.4467 194.268 68.3C194.122 68.1534 194.048 67.9734 194.048 67.76V67.7ZM210.508 65.48C210.642 65.2 210.708 64.8934 210.708 64.56C210.708 64.2267 210.635 63.9134 210.488 63.62C210.355 63.3267 210.168 63.0667 209.928 62.84C209.688 62.6134 209.408 62.4334 209.088 62.3C208.768 62.1667 208.428 62.1 208.068 62.1H195.568V67H208.068C208.575 67 209.055 66.86 209.508 66.58C209.975 66.3 210.308 65.9334 210.508 65.48ZM195.568 60.56H208.048C208.355 60.56 208.668 60.5134 208.988 60.42C209.308 60.3134 209.595 60.1667 209.848 59.98C210.102 59.78 210.308 59.5467 210.468 59.28C210.628 59.0134 210.708 58.7134 210.708 58.38C210.708 58.0334 210.628 57.7267 210.468 57.46C210.308 57.18 210.095 56.9467 209.828 56.76C209.575 56.5734 209.282 56.4334 208.948 56.34C208.628 56.2334 208.302 56.18 207.968 56.18H195.568V60.56Z" fill="white"/>
<path opacity="0.9" d="M160.743 60.34C160.743 59.5534 160.89 58.82 161.183 58.14C161.49 57.4467 161.903 56.8467 162.423 56.34C162.943 55.82 163.543 55.4134 164.223 55.12C164.917 54.8134 165.65 54.66 166.423 54.66H173.183C173.97 54.66 174.703 54.8134 175.383 55.12C176.076 55.4134 176.683 55.8134 177.203 56.32C177.71 56.84 178.11 57.4467 178.403 58.14C178.71 58.82 178.863 59.5534 178.863 60.34V67.76C178.863 67.9734 178.79 68.1534 178.643 68.3C178.497 68.4467 178.316 68.52 178.103 68.52C177.89 68.52 177.71 68.4467 177.563 68.3C177.417 68.1534 177.343 67.9734 177.343 67.76V62.16H162.263V67.76C162.263 67.9734 162.19 68.1534 162.043 68.3C161.897 68.4467 161.717 68.52 161.503 68.52C161.29 68.52 161.11 68.4467 160.963 68.3C160.816 68.1534 160.743 67.9734 160.743 67.76V60.34ZM177.343 60.64V60.3C177.343 59.74 177.23 59.2134 177.003 58.72C176.79 58.2134 176.49 57.7734 176.103 57.4C175.73 57.0267 175.29 56.7334 174.783 56.52C174.277 56.2934 173.743 56.18 173.183 56.18H166.383C165.823 56.18 165.29 56.2934 164.783 56.52C164.29 56.7334 163.857 57.0334 163.483 57.42C163.11 57.7934 162.81 58.2334 162.583 58.74C162.37 59.2334 162.263 59.7667 162.263 60.34V60.64H177.343Z" fill="white"/>
<path opacity="0.9" d="M129.099 55.42C129.099 55.2067 129.172 55.0267 129.319 54.88C129.466 54.7334 129.646 54.66 129.859 54.66C130.072 54.66 130.252 54.7334 130.399 54.88C130.546 55.0267 130.619 55.2067 130.619 55.42V62.82C130.619 63.4067 130.726 63.9534 130.939 64.46C131.152 64.9534 131.452 65.3867 131.839 65.76C132.226 66.1467 132.666 66.4534 133.159 66.68C133.666 66.8934 134.206 67 134.779 67H145.699C145.912 67 146.092 67.0734 146.239 67.22C146.386 67.3667 146.459 67.5467 146.459 67.76C146.459 67.9734 146.386 68.1534 146.239 68.3C146.092 68.4467 145.912 68.52 145.699 68.52H134.779C133.992 68.52 133.252 68.3734 132.559 68.08C131.879 67.7734 131.279 67.36 130.759 66.84C130.252 66.3334 129.846 65.74 129.539 65.06C129.246 64.3667 129.099 63.62 129.099 62.82V55.42Z" fill="white"/>
<path d="M363.673 44.224C362.82 44.224 361.967 44.0747 361.113 43.776C360.303 43.52 359.385 42.9013 358.361 41.92L332.121 18.368V43.52H320.089V8C320.089 6.592 320.281 5.376 320.665 4.352C321.092 3.328 321.625 2.496 322.265 1.856C322.948 1.216 323.716 0.746666 324.569 0.447998C325.465 0.149333 326.383 0 327.321 0C328.132 0 328.943 0.149333 329.753 0.447998C330.607 0.703997 331.567 1.32266 332.633 2.304L358.873 25.856V0.703999H370.969V36.16C370.969 37.568 370.756 38.784 370.329 39.808C369.945 40.832 369.412 41.6853 368.729 42.368C368.089 43.008 367.321 43.4773 366.425 43.776C365.529 44.0747 364.612 44.224 363.673 44.224Z" fill="white"/>
<path d="M282.296 0C292.707 0 300.515 1.77067 305.72 5.312C310.968 8.85333 313.592 14.4427 313.592 22.08C313.592 29.76 310.989 35.3707 305.784 38.912C300.579 42.4533 292.749 44.224 282.296 44.224C271.8 44.224 263.949 42.4533 258.744 38.912C253.581 35.3707 251 29.76 251 22.08C251 14.4427 253.603 8.85333 258.808 5.312C264.013 1.77067 271.843 0 282.296 0ZM282.296 33.088C285.624 33.088 288.44 32.96 290.744 32.704C293.048 32.4053 294.904 31.8507 296.312 31.04C297.763 30.2293 298.808 29.12 299.448 27.712C300.088 26.2613 300.408 24.384 300.408 22.08C300.408 19.776 300.088 17.92 299.448 16.512C298.808 15.0613 297.763 13.952 296.312 13.184C294.904 12.3733 293.048 11.84 290.744 11.584C288.44 11.2853 285.624 11.136 282.296 11.136C278.968 11.136 276.152 11.2853 273.848 11.584C271.544 11.84 269.667 12.3733 268.216 13.184C266.808 13.952 265.784 15.0613 265.144 16.512C264.504 17.92 264.184 19.776 264.184 22.08C264.184 24.384 264.504 26.2613 265.144 27.712C265.784 29.12 266.808 30.2293 268.216 31.04C269.667 31.8507 271.544 32.4053 273.848 32.704C276.152 32.96 278.968 33.088 282.296 33.088Z" fill="white"/>
<path d="M253.531 0.704041L228.123 29.376V43.52H214.811V29.312L188.699 0.704041H205.723L215.963 12.608C216.304 12.992 216.752 13.504 217.307 14.144C217.862 14.7414 218.438 15.3814 219.035 16.064C219.632 16.7467 220.187 17.3867 220.699 17.984C221.211 18.5814 221.574 19.0294 221.787 19.328C222.214 18.7307 222.832 17.92 223.643 16.896C224.454 15.872 225.627 14.4214 227.163 12.544L236.891 0.704041H253.531Z" fill="white"/>
<path d="M193.268 43.52H175.54L166.004 32.192H145.652V43.52H132.404V21.632H169.652C171.7 21.632 173.428 21.2054 174.836 20.352C176.244 19.4987 176.948 18.3254 176.948 16.832C176.948 15.168 176.308 13.9307 175.028 13.12C173.748 12.2667 171.956 11.84 169.652 11.84H132.404L141.044 0.704041H168.564C170.996 0.704041 173.513 0.938707 176.116 1.40804C178.718 1.83471 181.086 2.62404 183.22 3.77604C185.353 4.92804 187.102 6.48537 188.468 8.44804C189.876 10.4107 190.58 12.928 190.58 16C190.58 17.664 190.324 19.2427 189.812 20.736C189.3 22.2294 188.553 23.5734 187.572 24.768C186.633 25.9627 185.46 26.9867 184.052 27.84C182.686 28.6507 181.129 29.2267 179.38 29.568C180.105 30.1227 180.916 30.8267 181.812 31.68C182.708 32.5334 183.902 33.7067 185.396 35.2L193.268 43.52Z" fill="white"/>
<path d="M125.794 16.768C125.794 19.1574 125.324 21.3334 124.386 23.296C123.447 25.216 122.06 26.8587 120.226 28.224C118.434 29.5894 116.236 30.656 113.634 31.424C111.031 32.192 108.066 32.576 104.738 32.576H82.3376V43.52H69.1536V21.632H106.018C108.066 21.632 109.644 21.184 110.754 20.288C111.906 19.392 112.482 18.1974 112.482 16.704C112.482 15.2107 111.906 14.0374 110.754 13.184C109.644 12.288 108.066 11.84 106.018 11.84H69.1536L77.9216 0.704041H104.802C108.13 0.704041 111.095 1.10937 113.698 1.92004C116.3 2.68804 118.498 3.77604 120.29 5.18404C122.082 6.59204 123.447 8.27737 124.386 10.24C125.324 12.2027 125.794 14.3787 125.794 16.768Z" fill="white"/>
<path d="M31.296 0C41.7067 0 49.5147 1.77067 54.72 5.312C59.968 8.85333 62.592 14.4427 62.592 22.08C62.592 29.76 59.9893 35.3707 54.784 38.912C49.5787 42.4533 41.7493 44.224 31.296 44.224C20.8 44.224 12.9493 42.4533 7.744 38.912C2.58133 35.3707 0 29.76 0 22.08C0 14.4427 2.60267 8.85333 7.808 5.312C13.0133 1.77067 20.8427 0 31.296 0ZM31.296 33.088C34.624 33.088 37.44 32.96 39.744 32.704C42.048 32.4053 43.904 31.8507 45.312 31.04C46.7627 30.2293 47.808 29.12 48.448 27.712C49.088 26.2613 49.408 24.384 49.408 22.08C49.408 19.776 49.088 17.92 48.448 16.512C47.808 15.0613 46.7627 13.952 45.312 13.184C43.904 12.3733 42.048 11.84 39.744 11.584C37.44 11.2853 34.624 11.136 31.296 11.136C27.968 11.136 25.152 11.2853 22.848 11.584C20.544 11.84 18.6667 12.3733 17.216 13.184C15.808 13.952 14.784 15.0613 14.144 16.512C13.504 17.92 13.184 19.776 13.184 22.08C13.184 24.384 13.504 26.2613 14.144 27.712C14.784 29.12 15.808 30.2293 17.216 31.04C18.6667 31.8507 20.544 32.4053 22.848 32.704C25.152 32.96 27.968 33.088 31.296 33.088Z" fill="white"/>
</svg>
