<?xml version="1.0" encoding="UTF-8"?>
<svg version="1.1" xmlns="http://www.w3.org/2000/svg" width="512" height="512">
<path d="M0 0 C0 1.32 0 2.64 0 4 C0.66 4.33 1.32 4.66 2 5 C2.74609375 6.9777832 2.74609375 6.9777832 3.4375 9.55078125 C3.82035156 10.94006836 3.82035156 10.94006836 4.2109375 12.35742188 C4.47132813 13.33259766 4.73171875 14.30777344 5 15.3125 C5.51716223 17.22625626 6.03786933 19.13905888 6.5625 21.05078125 C6.79066406 21.90325439 7.01882813 22.75572754 7.25390625 23.6340332 C7.93333965 26.0119067 7.93333965 26.0119067 9.08203125 28.13745117 C10.25263346 30.5125906 10.14511012 32.38801776 10 35 C10.66 35 11.32 35 12 35 C12.16435547 35.90492187 12.16435547 35.90492187 12.33203125 36.828125 C13.23768625 41.39321524 14.09990855 44.30897452 17 48 C17.1875 50.75 17.1875 50.75 17 53 C17.66 53.33 18.32 53.66 19 54 C19.35557331 56.25946584 19.44330506 58.4899777 19.55859375 60.7734375 C20.08784944 63.44313436 21.06821357 64.17124218 23 66 C23 68 23 70 23 72 C23.95012124 74.02417134 24.94991347 76.02583732 26 78 C26.37309899 79.65821773 26.70700977 81.32577014 27 83 C27.37125 84.051875 27.7425 85.10375 28.125 86.1875 C29 89 29 89 28 91 C28.66 91 29.32 91 30 91 C30.41572266 92.28197266 30.41572266 92.28197266 30.83984375 93.58984375 C31.20207031 94.69457031 31.56429688 95.79929687 31.9375 96.9375 C32.29714844 98.03964844 32.65679687 99.14179687 33.02734375 100.27734375 C33.73856668 102.88123475 33.73856668 102.88123475 35 104 C35.33 104.99 35.66 105.98 36 107 C35.34 107 34.68 107 34 107 C34 107.66 34 108.32 34 109 C34.66 109.33 35.32 109.66 36 110 C37.1875 112.9375 37.1875 112.9375 38 116 C37.67 116.66 37.34 117.32 37 118 C37.66 118 38.32 118 39 118 C39.33333333 119.66666667 39.66666667 121.33333333 40 123 C40.3403125 124.11375 40.3403125 124.11375 40.6875 125.25 C41.15462375 129.36068897 40.04552484 133.03391817 39 137 C36.36 137 33.72 137 31 137 C30.67 137.99 30.34 138.98 30 140 C30 139.34 30 138.68 30 138 C29.34 138 28.68 138 28 138 C27.88398437 138.93392578 27.88398437 138.93392578 27.765625 139.88671875 C27 142 27 142 25.109375 143.08203125 C17.2609115 145.51193634 17.2609115 145.51193634 13 144 C13 144.66 13 145.32 13 146 C6.375 149 6.375 149 3 149 C3 148.34 3 147.68 3 147 C2.0925 147.474375 1.185 147.94875 0.25 148.4375 C-3.92959728 150.44692177 -7.52786943 151.1302325 -12.125 151.5625 C-12.99382812 151.64628906 -13.86265625 151.73007813 -14.7578125 151.81640625 C-17 152 -17 152 -19 152 C-19.66 152.33 -20.32 152.66 -21 153 C-22.98 146.565 -22.98 146.565 -25 140 C-29.95 140.99 -29.95 140.99 -35 142 C-35 142.66 -35 143.32 -35 144 C-38.3 144.33 -41.6 144.66 -45 145 C-45 145.99 -45 146.98 -45 148 C-44.34 148 -43.68 148 -43 148 C-43 149.32 -43 150.64 -43 152 C-45.53506166 153.26753083 -47.72273203 153.06442498 -50.50927734 153.08789062 C-59.39179108 153.23499698 -65.10565205 155.08348044 -72.77734375 159.42578125 C-76.82949294 161.40519473 -80.16143963 161.63809276 -84.60546875 161.76171875 C-87.188625 162.01877019 -88.56989269 162.63199475 -90.75 164 C-94.47336763 166.29130316 -96.72237562 166.65080617 -101 167 C-101 166.01 -101 165.02 -101 164 C-101.21785156 164.64582031 -101.43570312 165.29164063 -101.66015625 165.95703125 C-103 168 -103 168 -105.49609375 168.57421875 C-106.46675781 168.61160156 -107.43742187 168.64898437 -108.4375 168.6875 C-111.6138413 168.83553188 -113.96634789 168.98878263 -117 170 C-117.04898437 171.05058594 -117.09796875 172.10117188 -117.1484375 173.18359375 C-117.53077032 180.6288823 -117.96355881 187.79070089 -120 195 C-120.16628906 195.65613281 -120.33257812 196.31226563 -120.50390625 196.98828125 C-121.32709756 200.11900097 -122.18313652 202.27470478 -124 205 C-124.24187651 207.74518321 -124.24187651 207.74518321 -124.125 210.6875 C-124.10695313 211.68136719 -124.08890625 212.67523438 -124.0703125 213.69921875 C-124.03550781 214.83810547 -124.03550781 214.83810547 -124 216 C-125.65 216 -127.3 216 -129 216 C-128.67 214.68 -128.34 213.36 -128 212 C-128.66 212 -129.32 212 -130 212 C-133.74065739 216.06583118 -133.74065739 216.06583118 -136 221 C-136.99 221.33 -137.98 221.66 -139 222 C-139 222.66 -139 223.32 -139 224 C-139.9075 224.061875 -140.815 224.12375 -141.75 224.1875 C-147.50767002 224.97101798 -152.73614376 227.65762719 -158 230 C-157.67 231.65 -157.34 233.3 -157 235 C-156.34 235 -155.68 235 -155 235 C-154.566875 236.60875 -154.566875 236.60875 -154.125 238.25 C-153.17803419 241.79563995 -153.17803419 241.79563995 -151.9375 244.125 C-150.81198098 246.37603804 -150.4922582 248.53870902 -150 251 C-149.36525925 252.34882408 -148.70151152 253.6846659 -148 255 C-147.10869587 257.6739124 -146.52268466 260.23723823 -146 263 C-145.34 263 -144.68 263 -144 263 C-143.566875 264.60875 -143.566875 264.60875 -143.125 266.25 C-142.17803419 269.79563995 -142.17803419 269.79563995 -140.9375 272.125 C-140 274 -140 274 -139.5625 276.25 C-138.92054419 279.38845065 -137.82497908 282.17206102 -136.62109375 285.1328125 C-136 287 -136 287 -136 290 C-135.34 290 -134.68 290 -134 290 C-133.22678118 292.98241547 -132.58803797 295.97580475 -132 299 C-131.34 299 -130.68 299 -130 299 C-129.855625 299.886875 -129.71125 300.77375 -129.5625 301.6875 C-129.08980022 304.47117646 -128.56929815 307.23483757 -128 310 C-127.01 310.33 -126.02 310.66 -125 311 C-125 311.66 -125 312.32 -125 313 C-124.34 313 -123.68 313 -123 313 C-123.3403125 314.0828125 -123.3403125 314.0828125 -123.6875 315.1875 C-124.08984655 318.80861897 -122.94994872 320.00007889 -121 323 C-120.60828247 324.65391846 -120.27942455 326.32345271 -120 328 C-119.411438 330.354248 -118.75407101 332.69342986 -118 335 C-117.34 335.33 -116.68 335.66 -116 336 C-114.66319146 338.90952446 -113.54513854 341.83819648 -113 345 C-113.33 345.66 -113.66 346.32 -114 347 C-113.01 347.33 -112.02 347.66 -111 348 C-109.875 350.8125 -109.875 350.8125 -109 354 C-108.773125 354.7425 -108.54625 355.485 -108.3125 356.25 C-108 358 -108 358 -109 360 C-108.01 359.67 -107.02 359.34 -106 359 C-106 361.97 -106 364.94 -106 368 C-105.34 368.33 -104.68 368.66 -104 369 C-103 371.1796875 -103 371.1796875 -102 373.875 C-100.85696556 376.93797509 -99.82887727 379.2566841 -98 382 C-97.32741333 384.33163378 -96.66152556 386.6652039 -96 389 C-95.02059602 391.34205301 -94.01965427 393.67518826 -93 396 C-91.89581532 398.65197195 -90.92408157 401.27395937 -90 404 C-90.33 404.66 -90.66 405.32 -91 406 C-90.34 406.33 -89.68 406.66 -89 407 C-88.59270772 409.32156597 -88.25561323 411.6568787 -88 414 C-87.01 414.33 -86.02 414.66 -85 415 C-84.4375 416.6875 -84.4375 416.6875 -84 419 C-82.91040417 422.4011683 -81.73169698 425.76712283 -80.52734375 429.12890625 C-80.26759766 429.85400391 -80.00785156 430.57910156 -79.74023438 431.32617188 C-79.20338956 432.82176144 -78.66431197 434.31655136 -78.12304688 435.81054688 C-77.0287041 438.87525247 -76.0452517 441.7598179 -75.44140625 444.96484375 C-75.29574219 445.63644531 -75.15007812 446.30804688 -75 447 C-74.34 447.33 -73.68 447.66 -73 448 C-73.33 448.66 -73.66 449.32 -74 450 C-73.34 450.33 -72.68 450.66 -72 451 C-72.33 451.66 -72.66 452.32 -73 453 C-72.34 453 -71.68 453 -71 453 C-70.67 454.65 -70.34 456.3 -70 458 C-69.34 458 -68.68 458 -68 458 C-67.87625 459.010625 -67.7525 460.02125 -67.625 461.0625 C-67.11200682 464.98776136 -67.11200682 464.98776136 -65.8125 468.5625 C-64.88294466 472.49523414 -65.39916549 474.35365473 -67 478 C-68.93314127 478.41659944 -70.87180347 478.80764837 -72.8125 479.1875 C-73.89144531 479.40792969 -74.97039062 479.62835938 -76.08203125 479.85546875 C-79 480 -79 480 -80.76171875 478.61328125 C-81.17035156 478.08089844 -81.57898438 477.54851562 -82 477 C-82.66 476.67 -83.32 476.34 -84 476 C-84.4921875 473.9609375 -84.4921875 473.9609375 -84.875 471.375 C-85.49574144 467.86580846 -86.2305008 465.20935963 -88.125 462.1875 C-89.9971434 459.00485622 -90.4354491 457.59245505 -90 454 C-90.66 454 -91.32 454 -92 454 C-92.103125 453.113125 -92.20625 452.22625 -92.3125 451.3125 C-93.03020309 447.854476 -94.1579722 445.97558336 -96 443 C-97.09128716 440.36585858 -98.03944368 437.68406881 -99 435 C-100.99071041 429.89880456 -103.01491118 424.81862552 -105.625 420 C-107.17511193 416.6179376 -107.54019427 413.67844586 -108 410 C-108.62256028 407.98583438 -109.27566653 405.97984481 -110 404 C-110.66 404 -111.32 404 -112 404 C-112.12117188 403.40832031 -112.24234375 402.81664062 -112.3671875 402.20703125 C-113.81187704 394.6733437 -113.81187704 394.6733437 -117.5625 388.125 C-119 386 -119 386 -119.4375 382.8125 C-119.9231908 379.5205957 -120.49137074 377.66867455 -121.875 374.75 C-124 370 -124 370 -127 359 C-138.55 359 -150.1 359 -162 359 C-161.67 364.61 -161.34 370.22 -161 376 C-160.91586702 379.5455958 -160.85278713 383.07145516 -160.85473633 386.61547852 C-160.84969841 388.00444084 -160.84969841 388.00444084 -160.84455872 389.42146301 C-160.83524837 392.40729194 -160.8331171 395.39306383 -160.83203125 398.37890625 C-160.82880896 400.4877881 -160.82544419 402.59666974 -160.82194519 404.70555115 C-160.81600699 409.08992024 -160.81410019 413.47426976 -160.81469727 417.85864258 C-160.81479956 423.46355278 -160.80105483 429.06833823 -160.78392506 434.67321873 C-160.77279765 439.01330643 -160.77077815 443.35336377 -160.77130699 447.69346428 C-160.77013157 449.7606341 -160.76573455 451.82780482 -160.75797462 453.8949604 C-160.74814278 456.77975411 -160.75106347 459.66427386 -160.75708008 462.54907227 C-160.75146057 463.39127319 -160.74584106 464.23347412 -160.74005127 465.10119629 C-160.76796091 470.38563297 -161.53221815 474.91871986 -163 480 C-164.91750286 479.91256669 -166.83406665 479.8043811 -168.75 479.6875 C-169.81734375 479.62949219 -170.8846875 479.57148438 -171.984375 479.51171875 C-175.31028279 478.94734839 -176.59120893 478.31276969 -179 476 C-179.49219131 473.80362415 -179.49219131 473.80362415 -179.48101807 471.19746399 C-179.48926605 469.71459396 -179.48926605 469.71459396 -179.49768066 468.20176697 C-179.47610901 466.5768911 -179.47610901 466.5768911 -179.45410156 464.91918945 C-179.45468567 463.77758362 -179.45526978 462.63597778 -179.45587158 461.45977783 C-179.45307952 457.67730557 -179.42193297 453.89561626 -179.390625 450.11328125 C-179.38316665 447.4944044 -179.3774718 444.87552199 -179.37347412 442.25663757 C-179.36103786 436.06234933 -179.32820781 429.86834322 -179.28807616 423.67417926 C-179.24337839 416.62228858 -179.22137649 409.57038449 -179.20129442 402.51838744 C-179.15947546 388.01209202 -179.08611518 373.50610205 -179 359 C-190.55 359.33 -202.1 359.66 -214 360 C-218.17444044 368.77382344 -218.17444044 368.77382344 -220 378 C-220.66 378 -221.32 378 -222 378 C-222.10570312 378.67675781 -222.21140625 379.35351562 -222.3203125 380.05078125 C-223.13791035 383.5984041 -224.47239301 386.84233121 -225.875 390.1875 C-228.27966267 396.04469921 -230.30302017 401.895756 -232 408 C-232.33 408.99 -232.66 409.98 -233 411 C-233.2165625 412.2684375 -233.2165625 412.2684375 -233.4375 413.5625 C-234 416 -234 416 -236 418 C-236.66 418.33 -237.32 418.66 -238 419 C-237.979375 419.94875 -237.95875 420.8975 -237.9375 421.875 C-238 425 -238 425 -239 427 C-239.66 427 -240.32 427 -241 427 C-241.12375 427.86625 -241.2475 428.7325 -241.375 429.625 C-242 433 -242 433 -242.94140625 435.7890625 C-244.02847347 439.08636603 -244.81662279 442.36035908 -245.5625 445.75 C-246.89183673 451.78367347 -246.89183673 451.78367347 -248 454 C-248.66 454 -249.32 454 -250 454 C-252.07802795 458.3578062 -254.02365995 462.5962777 -255.125 467.3125 C-256.17902879 471.75447847 -257.69330554 475.69330554 -261 479 C-265.5232061 479.50257846 -269.60904603 479.84814266 -273.5625 477.4375 C-275.44933834 474.23807846 -275.8655557 471.69721826 -276 468 C-275.34 467.01 -274.68 466.02 -274 465 C-273.33841957 462.95415921 -273.33841957 462.95415921 -272.875 460.8125 C-272.58625 459.554375 -272.2975 458.29625 -272 457 C-271.34 457 -270.68 457 -270 457 C-269.34 453.37 -268.68 449.74 -268 446 C-267.34 446 -266.68 446 -266 446 C-266 444.68 -266 443.36 -266 442 C-266.66 442.99 -267.32 443.98 -268 445 C-268.36870229 438.60916031 -268.36870229 438.60916031 -266.5625 435.625 C-265.71497067 434.7435695 -264.86464608 433.86464608 -264 433 C-263.34 433 -262.68 433 -262 433 C-262 432.34 -262 431.68 -262 431 C-261.34 431 -260.68 431 -260 431 C-260.33 428.36 -260.66 425.72 -261 423 C-260.01 423 -259.02 423 -258 423 C-257.82984375 422.38253906 -257.6596875 421.76507813 -257.484375 421.12890625 C-255.97493114 415.8538817 -254.16169163 410.95732473 -251.8515625 405.984375 C-250.86777057 403.69186904 -250.31908416 401.47290223 -250 399 C-249.34 399 -248.68 399 -248 399 C-248 397.35 -248 395.7 -248 394 C-247.34 394 -246.68 394 -246 394 C-245.34 390.37 -244.68 386.74 -244 383 C-243.34 383 -242.68 383 -242 383 C-241.87625 382.278125 -241.7525 381.55625 -241.625 380.8125 C-241 378 -241 378 -240 375.5625 C-238.87739283 372.97352381 -238.87739283 372.97352381 -238.5625 369.9375 C-237.94985343 366.73812347 -237.00909915 365.49128295 -235 363 C-233.48249712 359.71207709 -232.61109653 356.56472977 -232 353 C-231.34 353 -230.68 353 -230 353 C-229.34 349.37 -228.68 345.74 -228 342 C-227.34 342 -226.68 342 -226 342 C-226.33 340.68 -226.66 339.36 -227 338 C-227.33 338.66 -227.66 339.32 -228 340 C-227.74281049 334.72761498 -225.91463367 332.33565851 -222.375 328.7109375 C-220.82445421 326.78156518 -220.35950487 325.43281376 -220 323 C-220.37907282 320.81296615 -220.37907282 320.81296615 -221 319 C-220.01 319 -219.02 319 -218 319 C-217.72736328 318.02160156 -217.72736328 318.02160156 -217.44921875 317.0234375 C-216.01564749 312.03902049 -214.32209244 307.64418489 -212 303 C-211.21615956 300.34849037 -210.60534146 297.70075421 -210 295 C-209.34 295 -208.68 295 -208 295 C-207.67 292.69 -207.34 290.38 -207 288 C-206.34 288 -205.68 288 -205 288 C-205 285.03 -205 282.06 -205 279 C-204.34 279 -203.68 279 -203 279 C-202.46809459 277.56656 -201.94984742 276.12804633 -201.4375 274.6875 C-201.14746094 273.88699219 -200.85742188 273.08648437 -200.55859375 272.26171875 C-199.75084375 269.8566826 -199.75084375 269.8566826 -201 267 C-200.01 266.67 -199.02 266.34 -198 266 C-198 265.34 -198 264.68 -198 264 C-197.34 264 -196.68 264 -196 264 C-195.938125 262.88625 -195.87625 261.7725 -195.8125 260.625 C-195.25396463 255.94830832 -193.37486508 252.30752632 -191.15625 248.19921875 C-189.42177378 244.90019809 -188.50087044 241.37247931 -187.4375 237.8125 C-187.03337891 236.46091797 -187.03337891 236.46091797 -186.62109375 235.08203125 C-186.31365234 234.05142578 -186.31365234 234.05142578 -186 233 C-185.34 233 -184.68 233 -184 233 C-184 232.34 -184 231.68 -184 231 C-184.78375 230.71125 -185.5675 230.4225 -186.375 230.125 C-189 229 -189 229 -191 227 C-192.010625 226.835 -193.02125 226.67 -194.0625 226.5 C-195.031875 226.335 -196.00125 226.17 -197 226 C-197.33 225.34 -197.66 224.68 -198 224 C-198.66 223.67 -199.32 223.34 -200 223 C-200.33 223.33 -200.66 223.66 -201 224 C-204.74257891 223.89306917 -206.49986975 222.72849481 -209 220.125 C-209.50144531 219.58230469 -210.00289062 219.03960937 -210.51953125 218.48046875 C-212.06469506 216.80902463 -212.06469506 216.80902463 -214.6875 215.4375 C-217 214 -217 214 -218.1328125 211.4609375 C-219.88255319 208.58206043 -219.88255319 208.58206043 -223.79296875 208.29296875 C-225.25702079 208.23334672 -226.7222797 208.19901702 -228.1875 208.1875 C-228.93708984 208.16236328 -229.68667969 208.13722656 -230.45898438 208.11132812 C-232.30542621 208.05252424 -234.15277002 208.02338266 -236 208 C-235.67 208.33 -235.34 208.66 -235 209 C-234.95907063 211.33297433 -234.95758277 213.66705225 -235 216 C-241.14778871 217.6277833 -246.64012196 218.20190089 -253 218 C-253 217.34 -253 216.68 -253 216 C-253.60328125 216.2165625 -254.2065625 216.433125 -254.828125 216.65625 C-256.02695312 217.07390625 -256.02695312 217.07390625 -257.25 217.5 C-258.43335938 217.91765625 -258.43335938 217.91765625 -259.640625 218.34375 C-262 219 -262 219 -266 219 C-266 218.34 -266 217.68 -266 217 C-268.475 217.99 -268.475 217.99 -271 219 C-271 219.66 -271 220.32 -271 221 C-272.6396875 221.2165625 -272.6396875 221.2165625 -274.3125 221.4375 C-277.93122987 221.88288104 -277.93122987 221.88288104 -281 223 C-281.66 222.67 -282.32 222.34 -283 222 C-283 222.66 -283 223.32 -283 224 C-294.52164009 226.48063781 -294.52164009 226.48063781 -300 225 C-301.33333333 221 -302.66666667 217 -304 213 C-309.94 214.98 -309.94 214.98 -316 217 C-314.02 217.66 -312.04 218.32 -310 219 C-310 219.66 -310 220.32 -310 221 C-311.916588 221.02712153 -313.8332873 221.04645097 -315.75 221.0625 C-316.81734375 221.07410156 -317.8846875 221.08570313 -318.984375 221.09765625 C-321.53368501 221.01510087 -323.57933591 220.74617558 -326 220 C-326 220.66 -326 221.32 -326 222 C-326.60328125 222.06058594 -327.2065625 222.12117187 -327.828125 222.18359375 C-328.62734375 222.26738281 -329.4265625 222.35117188 -330.25 222.4375 C-331.03890625 222.51871094 -331.8278125 222.59992188 -332.640625 222.68359375 C-334.82364639 222.97634993 -336.8773182 223.42064419 -339 224 C-339.33 225.32 -339.66 226.64 -340 228 C-340.72445312 228.06058594 -341.44890625 228.12117187 -342.1953125 228.18359375 C-350.84577889 228.57461129 -350.84577889 228.57461129 -359 231 C-358.83951172 232.06927734 -358.83951172 232.06927734 -358.67578125 233.16015625 C-357.88431487 239.48337692 -357.88779701 243.39803461 -361 249 C-361.99 248.67 -362.98 248.34 -364 248 C-364.33 248.66 -364.66 249.32 -365 250 C-368.44450737 252.29633824 -370.93812283 252.54016485 -375 253 C-375 253.66 -375 254.32 -375 255 C-379.77573323 257.61895048 -383.84434881 256.83119431 -389 256 C-389.33 256.66 -389.66 257.32 -390 258 C-390.99 258.33 -391.98 258.66 -393 259 C-393.66 258.67 -394.32 258.34 -395 258 C-395 258.66 -395 259.32 -395 260 C-402.21804511 260.36090226 -402.21804511 260.36090226 -405.4375 258.875 C-407.53182711 256.36180747 -407.71477553 254.20877528 -408 251 C-408.66 251 -409.32 251 -410 251 C-410.12117188 250.36191406 -410.24234375 249.72382813 -410.3671875 249.06640625 C-410.61855469 247.82697266 -410.61855469 247.82697266 -410.875 246.5625 C-411.03742188 245.73878906 -411.19984375 244.91507813 -411.3671875 244.06640625 C-411.57601562 243.38449219 -411.78484375 242.70257813 -412 242 C-412.66 241.67 -413.32 241.34 -414 241 C-415.27536232 235.55072464 -415.27536232 235.55072464 -414 233 C-414.66 233 -415.32 233 -416 233 C-416.12117188 232.32453125 -416.24234375 231.6490625 -416.3671875 230.953125 C-416.53476562 230.06109375 -416.70234375 229.1690625 -416.875 228.25 C-417.11863281 226.92742187 -417.11863281 226.92742187 -417.3671875 225.578125 C-417.97664504 223.09514985 -418.84253358 221.26348989 -420 219 C-426 201.28125 -426 201.28125 -426 195 C-426.66 194.67 -427.32 194.34 -428 194 C-428.78125 191.78515625 -428.78125 191.78515625 -429.5 189.0625 C-430.49475237 185.11648443 -430.49475237 185.11648443 -433 182 C-433.23386213 180.09569405 -433.46211959 178.19040883 -433.65234375 176.28125 C-434.02128804 173.86031219 -434.68257145 171.74367523 -435.5 169.4375 C-437.9968533 162.25443434 -438.15623342 157.22972382 -436 150 C-435.67 150.66 -435.34 151.32 -435 152 C-434.18208984 151.72736328 -434.18208984 151.72736328 -433.34765625 151.44921875 C-432.21650391 151.07216797 -432.21650391 151.07216797 -431.0625 150.6875 C-430.24007813 150.41292969 -429.41765625 150.13835937 -428.5703125 149.85546875 C-426.94115414 149.31324127 -425.31105332 148.77383064 -423.6796875 148.23828125 C-414.95087727 145.3823037 -414.95087727 145.3823037 -406.5 141.8125 C-402.35425935 140.46513429 -398.06385201 140.28661677 -393.88671875 141.73046875 C-391.44900212 143.37075427 -390.9147439 144.84081743 -389.875 147.5625 C-388.74678102 150.99197579 -388.74678102 150.99197579 -386 153 C-383.99568551 152.34641919 -381.9959722 151.67863055 -380 151 C-378.68 151 -377.36 151 -376 151 C-375.67 150.34 -375.34 149.68 -375 149 C-372.66666667 148.66666667 -370.33333333 148.33333333 -368 148 C-367.67 147.34 -367.34 146.68 -367 146 C-364.48828125 145.25390625 -364.48828125 145.25390625 -361.3125 144.5625 C-356.78929373 143.50637401 -353.13721733 142.11457775 -349 140 C-346.03145183 139.16672332 -343.02647553 138.58219959 -340 138 C-338.14582769 137.62502791 -336.29166094 137.25002831 -334.4375 136.875 C-332.95852623 136.58235679 -331.47943027 136.29032661 -330 136 C-330.09539062 135.04738281 -330.19078125 134.09476563 -330.2890625 133.11328125 C-330.39992188 131.85902344 -330.51078125 130.60476562 -330.625 129.3125 C-330.74101562 128.07113281 -330.85703125 126.82976562 -330.9765625 125.55078125 C-330.99969824 122.04571682 -330.7186535 120.03025748 -329 117 C-326.375 116.1875 -326.375 116.1875 -324 116 C-324.33 115.34 -324.66 114.68 -325 114 C-324.13375 114.2784375 -324.13375 114.2784375 -323.25 114.5625 C-320.79307475 115.04023546 -319.35602466 114.75729364 -317 114 C-317.33 113.34 -317.66 112.68 -318 112 C-315 111 -315 111 -313.1875 111.625 C-309.9010455 112.1883922 -307.91149286 110.48545554 -305 109 C-302.125 108.8125 -302.125 108.8125 -300 109 C-299.67 108.01 -299.34 107.02 -299 106 C-297.68 106 -296.36 106 -295 106 C-284.26868657 104.25590508 -273.51267745 100.24383665 -263.56640625 95.94921875 C-260.61679435 94.8582664 -257.79366091 94.35287091 -254.6875 93.875 C-253.61886719 93.70742187 -252.55023438 93.53984375 -251.44921875 93.3671875 C-250.64097656 93.24601562 -249.83273438 93.12484375 -249 93 C-249 92.34 -249 91.68 -249 91 C-248.175 90.896875 -247.35 90.79375 -246.5 90.6875 C-243.75256223 90.14782472 -241.67489731 89.53306116 -239.125 88.5 C-236.23281122 87.34646806 -233.66118473 86.74237954 -230.5625 86.4375 C-228.7990625 86.2209375 -228.7990625 86.2209375 -227 86 C-226.67 85.34 -226.34 84.68 -226 84 C-223.67843403 83.59270772 -221.3431213 83.25561323 -219 83 C-219 81.68 -219 80.36 -219 79 C-218.34 79 -217.68 79 -217 79 C-217 79.99 -217 80.98 -217 82 C-216.34 82 -215.68 82 -215 82 C-214.67 81.34 -214.34 80.68 -214 80 C-212.35 80 -210.7 80 -209 80 C-209 79.34 -209 78.68 -209 78 C-208.12988281 77.87367187 -207.25976562 77.74734375 -206.36328125 77.6171875 C-203.15482698 77.02841192 -200.26682211 76.18854097 -197.1875 75.125 C-196.14722656 74.76921875 -195.10695313 74.4134375 -194.03515625 74.046875 C-193.03355469 73.70140625 -192.03195312 73.3559375 -191 73 C-188.65650104 72.21526671 -186.31110387 71.43658591 -183.96484375 70.66015625 C-182.19808547 70.06655357 -180.44198064 69.44146476 -178.6875 68.8125 C-176 68 -176 68 -172 68 C-172 67.34 -172 66.68 -172 66 C-171.319375 65.87625 -170.63875 65.7525 -169.9375 65.625 C-166.9060916 65.02010728 -166.9060916 65.02010728 -163.625 64 C-160.08076338 63.02227955 -156.6452225 62.44635378 -153 62 C-153 61.34 -153 60.68 -153 60 C-151.02 59.67 -149.04 59.34 -147 59 C-147 58.34 -147 57.68 -147 57 C-145.80375 56.938125 -144.6075 56.87625 -143.375 56.8125 C-137.74813655 56.2020384 -132.76997004 54.24119976 -127.49609375 52.265625 C-123.54540033 50.83542984 -119.57310316 49.73707732 -115.51171875 48.67578125 C-107.30561153 46.46791726 -98.59938499 43.79969249 -91 40 C-89.33333333 39.66666667 -87.66666667 39.33333333 -86 39 C-80.7179368 37.62666357 -75.6603998 35.81754731 -70.55078125 33.90234375 C-66.75065289 32.55804107 -64.08485086 32 -60 32 C-60.33 31.01 -60.66 30.02 -61 29 C-62.1865126 24.91405167 -62.14865179 21.23657606 -62 17 C-61.34 17 -60.68 17 -60 17 C-60 16.01 -60 15.02 -60 14 C-58.5682384 13.30062798 -57.12932968 12.61587282 -55.6875 11.9375 C-54.88699219 11.55464844 -54.08648437 11.17179687 -53.26171875 10.77734375 C-51 10 -51 10 -48 11 C-47.67 10.34 -47.34 9.68 -47 9 C-45.00169724 8.65663838 -43.00120213 8.32603855 -41 8 C-37.31701736 6.83849871 -33.71614107 5.44100399 -30.1015625 4.08398438 C-29.37453125 3.81779297 -28.6475 3.55160156 -27.8984375 3.27734375 C-26.91883057 2.90984009 -26.91883057 2.90984009 -25.91943359 2.53491211 C-24 2 -24 2 -20 2 C-20 1.34 -20 0.68 -20 0 C-5.29069767 -3.25581395 -5.29069767 -3.25581395 0 0 Z M-16 18 C-16 18.66 -16 19.32 -16 20 C-16.54269531 19.80019531 -17.08539063 19.60039062 -17.64453125 19.39453125 C-24.39772159 18.26339987 -35.22025995 23.38937854 -41 27 C-42.29030122 29.82777419 -42.29030122 29.82777419 -41.29296875 31.91015625 C-40.92816406 32.62042969 -40.56335938 33.33070312 -40.1875 34.0625 C-38.21348066 38.22686956 -37.28548765 42.10056965 -36.484375 46.6171875 C-35.91873553 49.39976877 -34.97512251 51.96844373 -33.921875 54.6015625 C-32.65874821 57.88783304 -31.54910433 61.22279188 -30.4375 64.5625 C-30.02371094 65.80128906 -29.60992187 67.04007813 -29.18359375 68.31640625 C-28.40623849 70.73570002 -27.66907298 73.1683492 -26.9765625 75.61328125 C-25.82263846 79.61508982 -24.379598 83.46053055 -22.90234375 87.3515625 C-22.03623213 89.89365635 -21.46262677 92.35778112 -21 95 C-20.34 95 -19.68 95 -19 95 C-19.33 95.99 -19.66 96.98 -20 98 C-19.0337499 100.01652194 -18.03291676 102.01679982 -17 104 C-17 104.99 -17 105.98 -17 107 C-16.34 107 -15.68 107 -15 107 C-15.33 107.99 -15.66 108.98 -16 110 C-15.34 110 -14.68 110 -14 110 C-13.92652344 110.87011719 -13.92652344 110.87011719 -13.8515625 111.7578125 C-13.40218851 116.45299593 -12.6774972 120.55956624 -11 125 C-10.33333333 127 -9.66666667 129 -9 131 C-3.06997733 131.37851209 1.47239641 130.10575375 7 128 C7 127.67 7 127.34 7 127 C11.29 126.01 15.58 125.02 20 124 C20 123.01 20 122.02 20 121 C19.34 121 18.68 121 18 121 C18 118.36 18 115.72 18 113 C17.34 113 16.68 113 16 113 C16.495 111.515 16.495 111.515 17 110 C16.34 110 15.68 110 15 110 C14.95101562 109.40832031 14.90203125 108.81664063 14.8515625 108.20703125 C14.35176413 102.92467952 13.38299258 98.76598516 11 94 C10.68516001 92.67194767 10.39726263 91.33743048 10.125 90 C9.03234713 84.90923096 7.55516351 79.96615549 6 75 C5.34 75 4.68 75 4 75 C3.9175 73.783125 3.835 72.56625 3.75 71.3125 C3.07049528 64.96369475 1.00541556 59.0349017 -1 53 C-1.66 53 -2.32 53 -3 53 C-2.67 52.01 -2.34 51.02 -2 50 C-2.72287426 47.87779387 -2.72287426 47.87779387 -3.875 45.6875 C-5.56995931 42.11055138 -6.59230327 38.97504311 -7 35 C-7.66 35 -8.32 35 -9 35 C-9.04898438 34.43152344 -9.09796875 33.86304688 -9.1484375 33.27734375 C-9.63143081 28.28918871 -10.47638163 23.77400422 -12 19 C-13.32 18.67 -14.64 18.34 -16 18 Z M-61 50 C-60.34 50.66 -59.68 51.32 -59 52 C-56.39719432 51.67958603 -56.39719432 51.67958603 -54 51 C-54 50.01 -54 49.02 -54 48 C-57.10551666 48 -58.35261084 48.5393715 -61 50 Z M-63 50 C-62 52 -62 52 -62 52 Z M-71 54 C-67.535 53.505 -67.535 53.505 -64 53 C-64 52.67 -64 52.34 -64 52 C-67.95457848 51.65176193 -67.95457848 51.65176193 -71 54 Z M-56 52 C-56 53.32 -56 54.64 -56 56 C-61.61 56 -67.22 56 -73 56 C-73.33 55.34 -73.66 54.68 -74 54 C-74.66 54 -75.32 54 -76 54 C-76 54.66 -76 55.32 -76 56 C-81.58228919 59.37837242 -84.45170031 60.05240531 -91 59 C-92.92301762 59.68189165 -94.8436599 60.37315272 -96.73876953 61.12915039 C-100.64737786 62.63444146 -104.67086607 63.75855361 -108.6875 64.9375 C-110.44672292 65.45927027 -112.20583733 65.98140656 -113.96484375 66.50390625 C-114.81804199 66.75672363 -115.67124023 67.00954102 -116.55029297 67.27001953 C-121.71198349 68.8081354 -126.85589341 70.40420051 -132 72 C-132 73.32 -132 74.64 -132 76 C-132.80824219 75.97679688 -133.61648438 75.95359375 -134.44921875 75.9296875 C-135.51785156 75.91164063 -136.58648437 75.89359375 -137.6875 75.875 C-138.74324219 75.85179688 -139.79898438 75.82859375 -140.88671875 75.8046875 C-145.4630324 76.09178371 -148.9829783 77.91709986 -153 80 C-152.34 80.33 -151.68 80.66 -151 81 C-152.77065111 81.64633275 -154.54152753 82.2920483 -156.3125 82.9375 C-157.29863281 83.29714844 -158.28476562 83.65679687 -159.30078125 84.02734375 C-161.1920563 84.70885965 -163.09284329 85.3642811 -165 86 C-165 85.34 -165 84.68 -165 84 C-167.97 84.495 -167.97 84.495 -171 85 C-171 85.66 -171 86.32 -171 87 C-171.99 86.67 -172.98 86.34 -174 86 C-175.68949614 86.60648579 -177.35636866 87.27840576 -179 88 C-180.32676508 88.35858516 -181.65835921 88.7018576 -183 89 C-183 89.66 -183 90.32 -183 91 C-183.88558594 90.71576172 -183.88558594 90.71576172 -184.7890625 90.42578125 C-187.75492653 89.85461662 -189.70197712 90.91112558 -192.4296875 92.03125 C-195.73298607 93.27626223 -199.10385178 94.23519301 -202.5 95.1875 C-203.7271875 95.53167969 -204.954375 95.87585938 -206.21875 96.23046875 C-207.1365625 96.48441406 -208.054375 96.73835938 -209 97 C-208.34 97.66 -207.68 98.32 -207 99 C-204.39719432 98.67958603 -204.39719432 98.67958603 -202 98 C-202 99.98 -202 101.96 -202 104 C-202.7206665 103.9592334 -203.44133301 103.9184668 -204.18383789 103.87646484 C-207.47619123 103.69712721 -210.76919701 103.53591653 -214.0625 103.375 C-215.7630957 103.27832031 -215.7630957 103.27832031 -217.49804688 103.1796875 C-223.47004182 102.90111048 -228.38289695 102.86403338 -234 105 C-234 105.33 -234 105.66 -234 106 C-232.02 106 -230.04 106 -228 106 C-229 109 -229 109 -231.0390625 110.19140625 C-235.54074695 111.42075807 -239.97249938 111.04998457 -244.5859375 110.83398438 C-249.89957471 110.69639913 -253.21742822 111.68735567 -258 114 C-260.08984375 114.5546875 -260.08984375 114.5546875 -261.9375 114.875 C-266.48601893 115.82096581 -270.92399558 117.05289975 -275.375 118.375 C-276.42868774 118.67059814 -276.42868774 118.67059814 -277.50366211 118.97216797 C-281.54776489 120.20109029 -283.90658207 121.24463196 -286 125 C-283.62570704 125.25069913 -283.62570704 125.25069913 -281 125 C-279.2912354 123.62485459 -279.2912354 123.62485459 -278 122 C-277.34 121.67 -276.68 121.34 -276 121 C-276 122.32 -276 123.64 -276 125 C-277.98 125.495 -277.98 125.495 -280 126 C-279.34 126.33 -278.68 126.66 -278 127 C-285.26 127 -292.52 127 -300 127 C-300 127.66 -300 128.32 -300 129 C-300.721875 128.79375 -301.44375 128.5875 -302.1875 128.375 C-305.44641585 127.94047789 -307.08304504 128.58319331 -310 130 C-310.18183473 134.63678549 -309.90335123 137.79259202 -308 142 C-307.50962281 143.45460201 -307.03159584 144.91339612 -306.5625 146.375 C-305.61782617 149.27167844 -304.57616572 152.04078037 -303.3125 154.8125 C-302 158 -302 158 -302 162 C-301.34 162 -300.68 162 -300 162 C-300.33 162.99 -300.66 163.98 -301 165 C-300.27854685 167.41504317 -300.27854685 167.41504317 -299.125 169.9375 C-297.82420414 172.95298132 -296.73236658 175.79928679 -296 179 C-295.71125 179.845625 -295.4225 180.69125 -295.125 181.5625 C-294.45174621 183.61966437 -293.82804367 185.69559736 -293.30859375 187.796875 C-293.06238281 188.79203125 -292.81617188 189.7871875 -292.5625 190.8125 C-292.33691406 191.76769531 -292.11132812 192.72289062 -291.87890625 193.70703125 C-291.58886719 194.46371094 -291.29882812 195.22039062 -291 196 C-290.01 196.33 -289.02 196.66 -288 197 C-288.309375 198.1446875 -288.309375 198.1446875 -288.625 199.3125 C-289.33391203 202.21885944 -289.33391203 202.21885944 -287 205 C-284.39546825 204.35561067 -281.7913709 203.7095496 -279.1875 203.0625 C-278.08051758 202.78889648 -278.08051758 202.78889648 -276.95117188 202.50976562 C-273.92939016 201.7577385 -270.95543282 200.98514427 -268 200 C-268 199.34 -268 198.68 -268 198 C-267.01 198.33 -266.02 198.66 -265 199 C-262.12445054 198.05045286 -262.12445054 198.05045286 -259.0625 196.625 C-255.7137845 195.13944839 -252.58029524 193.77739478 -249 193 C-247.18591291 192.52687743 -245.37350743 192.0472773 -243.5625 191.5625 C-242.17224609 191.19318359 -242.17224609 191.19318359 -240.75390625 190.81640625 C-238.08617123 190.0255458 -235.56978869 189.06217933 -233 188 C-229.68788738 186.8508997 -226.40483188 185.82741076 -223 185 C-222.97421875 183.93523437 -222.9484375 182.87046875 -222.921875 181.7734375 C-222.4419038 167.91687759 -220.87500755 153.50435758 -210.31640625 143.38671875 C-208.77050635 142.07692262 -208.77050635 142.07692262 -209 140 C-208.01 139.67 -207.02 139.34 -206 139 C-206 138.34 -206 137.68 -206 137 C-205.195625 136.731875 -204.39125 136.46375 -203.5625 136.1875 C-202.716875 135.795625 -201.87125 135.40375 -201 135 C-200.505 133.515 -200.505 133.515 -200 132 C-198.68 132 -197.36 132 -196 132 C-196 131.34 -196 130.68 -196 130 C-195.34257812 129.87753906 -194.68515625 129.75507813 -194.0078125 129.62890625 C-191.00507661 129.00106147 -188.04559686 128.24894184 -185.07421875 127.48852539 C-173.95241796 124.7019019 -164.85379227 123.57882223 -154 128 C-147.71950691 130.60317305 -147.71950691 130.60317305 -141 131 C-141 131.66 -141 132.32 -141 133 C-140.34 133 -139.68 133 -139 133 C-139 133.99 -139 134.98 -139 136 C-136.1668838 137.62507196 -136.1668838 137.62507196 -133 139 C-132.01 138.67 -131.02 138.34 -130 138 C-128.875 141.75 -128.875 141.75 -130 144 C-129.34 144 -128.68 144 -128 144 C-127.67 144.66 -127.34 145.32 -127 146 C-126.67 145.67 -126.34 145.34 -126 145 C-125.67 146.32 -125.34 147.64 -125 149 C-122.62468606 149.0543965 -120.25064117 149.09385864 -117.875 149.125 C-117.20984375 149.14175781 -116.5446875 149.15851563 -115.859375 149.17578125 C-110.69325894 149.22642945 -106.60474494 148.30237247 -102 146 C-100.42206417 145.50334754 -98.83775689 145.02679861 -97.25 144.5625 C-92.61093243 143.20350935 -88.03616573 141.68810516 -83.45703125 140.140625 C-77.22277424 138.04105248 -70.96338874 136.03307767 -64.6875 134.0625 C-56.42849107 131.46641244 -48.17805925 128.84275108 -40 126 C-39.06542969 125.68160156 -38.13085938 125.36320312 -37.16796875 125.03515625 C-34.70252715 124.13995378 -34.70252715 124.13995378 -33.6875 121.1875 C-32.44861293 115.44356905 -33.29612415 111.6127675 -35 106 C-35.35371498 104.33753959 -35.69595322 102.67225729 -36 101 C-36.66 101 -37.32 101 -38 101 C-37.938125 100.360625 -37.87625 99.72125 -37.8125 99.0625 C-38.22244742 92.36669221 -41.29038223 86.06438262 -44 80 C-44.66 80 -45.32 80 -46 80 C-46.144375 79.030625 -46.28875 78.06125 -46.4375 77.0625 C-46.67562341 74.13513227 -46.67562341 74.13513227 -48 73 C-48.14115161 70.32941149 -48.04247107 67.67567762 -48 65 C-48.66 65 -49.32 65 -50 65 C-49.67 64.01 -49.34 63.02 -49 62 C-49.53194603 59.45981734 -49.53194603 59.45981734 -50.4375 56.8125 C-50.86869141 55.46091797 -50.86869141 55.46091797 -51.30859375 54.08203125 C-51.53675781 53.39496094 -51.76492188 52.70789062 -52 52 C-53.32 52 -54.64 52 -56 52 Z M-47 70 C-46 73 -46 73 -46 73 Z M-156 80 C-156.33 80.66 -156.66 81.32 -157 82 C-155.68 81.34 -154.36 80.68 -153 80 C-153.99 80 -154.98 80 -156 80 Z M-221 101 C-217 102 -217 102 -217 102 Z M-239 107 C-240.65 107.66 -242.3 108.32 -244 109 C-241.50907189 110.24546405 -240.58919267 109.7767578 -238 109 C-238.33 108.34 -238.66 107.68 -239 107 Z M18 115 C19 117 19 117 19 117 Z M-32 118 C-32.33 119.32 -32.66 120.64 -33 122 C-32.01 122 -31.02 122 -30 122 C-30.66 120.68 -31.32 119.36 -32 118 Z M-174 142 C-174 142.33 -174 142.66 -174 143 C-170.7 143 -167.4 143 -164 143 C-164 142.67 -164 142.34 -164 142 C-167.3 142 -170.6 142 -174 142 Z M-183 146 C-183 146.66 -183 147.32 -183 148 C-187.455 148.495 -187.455 148.495 -192 149 C-192 149.99 -192 150.98 -192 152 C-192.99 151.67 -193.98 151.34 -195 151 C-195.33 151.99 -195.66 152.98 -196 154 C-193.03 154.495 -193.03 154.495 -190 155 C-190 155.66 -190 156.32 -190 157 C-188.29887008 157.80469849 -188.29887008 157.80469849 -186 158 C-183.96726926 157.06833174 -181.96615661 156.0650015 -180 155 C-176.63406382 153.89498423 -173.46526315 153.86625709 -169.9375 153.875 C-168.89464844 153.87242187 -167.85179687 153.86984375 -166.77734375 153.8671875 C-164 154 -164 154 -161 155 C-160.34 154.67 -159.68 154.34 -159 154 C-158.505 154.99 -158.505 154.99 -158 156 C-156.50863455 157.26441854 -155.01502267 158.52664229 -153.49609375 159.7578125 C-151.89917156 161.08371657 -150.46651139 162.53348861 -149 164 C-148.67 164 -148.34 164 -148 164 C-147.17463655 169.71905383 -146.87246299 175.2267149 -146.9375 181 C-146.94201172 181.77472656 -146.94652344 182.54945313 -146.95117188 183.34765625 C-146.96280242 185.23180524 -146.98073094 187.11591365 -147 189 C-147.99 189.495 -147.99 189.495 -149 190 C-149 190.99 -149 191.98 -149 193 C-149.99 193.33 -150.98 193.66 -152 194 C-151.67 194.66 -151.34 195.32 -151 196 C-153.475 196.495 -153.475 196.495 -156 197 C-155.34 197.99 -154.68 198.98 -154 200 C-157.9605473 203.9605473 -166.79050165 203.60168825 -172 204 C-172.33 203.34 -172.66 202.68 -173 202 C-174.97084661 201.73722045 -176.94324415 201.48088412 -178.921875 201.28515625 C-181.48831477 200.9329944 -183.66183045 200.09601698 -186 199 C-186 198.34 -186 197.68 -186 197 C-186.66 197 -187.32 197 -188 197 C-188.33 196.01 -188.66 195.02 -189 194 C-190.84188612 191.94729537 -190.84188612 191.94729537 -193 191 C-193.50244141 188.77514648 -193.50244141 188.77514648 -193.8515625 185.87109375 C-194.04492188 184.31938477 -194.04492188 184.31938477 -194.2421875 182.73632812 C-194.36851562 181.64771484 -194.49484375 180.55910156 -194.625 179.4375 C-194.7590625 178.34501953 -194.893125 177.25253906 -195.03125 176.12695312 C-195.36237133 173.41885369 -195.68489088 170.7100016 -196 168 C-198.97 167.67 -201.94 167.34 -205 167 C-207.71142213 175.1342664 -206.4256053 186.33001969 -203.07421875 194.1640625 C-201.47622602 196.89517735 -199.28308087 198.82310893 -197 201 C-196.113125 201.9075 -195.22625 202.815 -194.3125 203.75 C-191.27953107 206.70099679 -189.59656045 207.12758541 -185.5 207.5 C-181.22222222 207.88888889 -181.22222222 207.88888889 -179 209 C-176.46763232 209.09953815 -173.96942559 209.14108301 -171.4375 209.125 C-170.71820313 209.12306641 -169.99890625 209.12113281 -169.2578125 209.11914062 C-164.10875457 209.07739151 -159.1022464 208.72889234 -154 208 C-154 207.34 -154 206.68 -154 206 C-152.948125 205.938125 -151.89625 205.87625 -150.8125 205.8125 C-146.24630212 204.83937586 -144.88470455 203.60588069 -142 200 C-137.18940037 192.09687203 -137.79163873 183.34814585 -137.75 174.375 C-137.729375 173.25609375 -137.70875 172.1371875 -137.6875 170.984375 C-137.68234375 169.90414062 -137.6771875 168.82390625 -137.671875 167.7109375 C-137.6625293 166.73431152 -137.65318359 165.75768555 -137.64355469 164.75146484 C-138.06689492 161.48362617 -138.98273332 159.59337535 -141 157 C-141.99 157 -142.98 157 -144 157 C-144.12375 156.401875 -144.2475 155.80375 -144.375 155.1875 C-144.95475985 152.73768652 -144.95475985 152.73768652 -147 150 C-147.99 150 -148.98 150 -150 150 C-150.495 148.515 -150.495 148.515 -151 147 C-156.06666163 144.42087945 -161.42591711 144.20915828 -167 143.6875 C-167.98484375 143.57599609 -168.9696875 143.46449219 -169.984375 143.34960938 C-177.02719476 142.57212985 -177.02719476 142.57212985 -183 146 Z M-127 146 C-126 149 -126 149 -126 149 Z M-51 147 C-51.66 147.66 -52.32 148.32 -53 149 C-52.01 149 -51.02 149 -50 149 C-50.33 148.34 -50.66 147.68 -51 147 Z M-328 153 C-328.66 153.33 -329.32 153.66 -330 154 C-330.33 154.66 -330.66 155.32 -331 156 C-328.525 156.495 -328.525 156.495 -326 157 C-327.65 157.66 -329.3 158.32 -331 159 C-331 159.66 -331 160.32 -331 161 C-331.83023682 160.93099487 -331.83023682 160.93099487 -332.67724609 160.8605957 C-348.25879774 159.51508006 -348.25879774 159.51508006 -363 164 C-363 164.66 -363 165.32 -363 166 C-363.57234375 165.80535156 -364.1446875 165.61070312 -364.734375 165.41015625 C-367.44641994 164.9191826 -368.72995052 165.38747938 -371.25 166.4375 C-371.95640625 166.72496094 -372.6628125 167.01242188 -373.390625 167.30859375 C-374.18726563 167.65083984 -374.18726563 167.65083984 -375 168 C-373.68 168.33 -372.36 168.66 -371 169 C-371 170.65 -371 172.3 -371 174 C-373.31 174.33 -375.62 174.66 -378 175 C-377.719172 176.98073365 -377.42503386 178.95958448 -377.125 180.9375 C-376.88136719 182.59072266 -376.88136719 182.59072266 -376.6328125 184.27734375 C-376.31957031 185.62505859 -376.31957031 185.62505859 -376 187 C-375.34 187.33 -374.68 187.66 -374 188 C-374.20625 189.093125 -374.4125 190.18625 -374.625 191.3125 C-375.40346525 195.0838401 -375.40346525 195.0838401 -373 198 C-373 198.99 -373 199.98 -373 201 C-372.34 201 -371.68 201 -371 201 C-370.87625 201.9075 -370.7525 202.815 -370.625 203.75 C-370.17190136 206.89548679 -370.17190136 206.89548679 -368.9375 209.125 C-368 211 -368 211 -368 215 C-361.73626033 213.20647801 -355.60612992 211.17998214 -349.49609375 208.91796875 C-346.68350795 207.88360621 -343.85049612 206.92448523 -341 206 C-341 205.34 -341 204.68 -341 204 C-340.42765625 204.18433594 -339.8553125 204.36867187 -339.265625 204.55859375 C-336.71226153 205.05605939 -335.23414994 204.76634248 -332.75 204.0625 C-331.5125 203.711875 -330.275 203.36125 -329 203 C-329 202.34 -329 201.68 -329 201 C-327.72125 200.9175 -326.4425 200.835 -325.125 200.75 C-319.73602943 200.15977941 -314.79986226 198.5237371 -310 196 C-309.505 195.01 -309.505 195.01 -309 194 C-309.89163577 191.88316159 -309.89163577 191.88316159 -311 190 C-311 190.99 -311 191.98 -311 193 C-311 191.68 -311 190.36 -311 189 C-311.30546623 187.56977851 -311.66174989 186.14979471 -312.05859375 184.7421875 C-312.27966797 183.95199219 -312.50074219 183.16179687 -312.72851562 182.34765625 C-313.07946289 181.12369141 -313.07946289 181.12369141 -313.4375 179.875 C-313.66759766 179.05128906 -313.89769531 178.22757813 -314.13476562 177.37890625 C-315.3022799 173.08960545 -315.3022799 173.08960545 -317 169 C-317.66 169 -318.32 169 -319 169 C-318.505 167.515 -318.505 167.515 -318 166 C-318.73157326 163.374943 -319.52241186 160.87140181 -320.4375 158.3125 C-320.68048828 157.61060547 -320.92347656 156.90871094 -321.17382812 156.18554688 C-321.7744944 154.45421468 -322.38619719 152.72671863 -323 151 C-324.83347347 151 -326.40129701 152.17642573 -328 153 Z M-336 155 C-336.33 155.66 -336.66 156.32 -337 157 C-336.01 157 -335.02 157 -334 157 C-334 156.34 -334 155.68 -334 155 C-334.66 155 -335.32 155 -336 155 Z M-199 155 C-199 158 -199 158 -199 158 Z M-79 156 C-78 158 -78 158 -78 158 Z M-339 156 C-339.66 156.66 -340.32 157.32 -341 158 C-340.01 158 -339.02 158 -338 158 C-338.33 157.34 -338.66 156.68 -339 156 Z M-201 158 C-201.66 159.32 -202.32 160.64 -203 162 C-202.01 162.495 -202.01 162.495 -201 163 C-200.34 161.68 -199.68 160.36 -199 159 C-199.66 158.67 -200.32 158.34 -201 158 Z M-86 158 C-82 159 -82 159 -82 159 Z M-405 161 C-405.60328125 161.20496094 -406.2065625 161.40992188 -406.828125 161.62109375 C-408.02695312 162.02521484 -408.02695312 162.02521484 -409.25 162.4375 C-410.03890625 162.70433594 -410.8278125 162.97117188 -411.640625 163.24609375 C-413.74821988 163.91954708 -415.84753973 164.49150595 -418 165 C-417.48422095 168.78237972 -416.73547063 171.63114524 -415 175 C-414.67 176.216875 -414.34 177.43375 -414 178.6875 C-413.67 179.780625 -413.34 180.87375 -413 182 C-412.34 182.33 -411.68 182.66 -411 183 C-411.33 183.99 -411.66 184.98 -412 186 C-411.31346127 188.34742051 -411.31346127 188.34742051 -410.1875 190.8125 C-409.81109375 191.70839844 -409.4346875 192.60429687 -409.046875 193.52734375 C-408.70140625 194.34332031 -408.3559375 195.15929687 -408 196 C-406.17672415 200.93356994 -405.03295537 205.97367814 -403.87890625 211.09765625 C-402.9641421 214.11841077 -401.70540913 216.3579413 -400 219 C-398.9849911 220.99242489 -397.98126556 222.99074195 -397 225 C-397.99 225.495 -397.99 225.495 -399 226 C-398.67 226.99 -398.34 227.98 -398 229 C-397.34 229 -396.68 229 -396 229 C-396.33 229.99 -396.66 230.98 -397 232 C-396.47339282 234.08894035 -396.47339282 234.08894035 -395.5625 236.1875 C-395.27503906 236.90292969 -394.98757813 237.61835938 -394.69140625 238.35546875 C-394.34916016 239.16951172 -394.34916016 239.16951172 -394 240 C-392.515 239.505 -392.515 239.505 -391 239 C-391.33 238.01 -391.66 237.02 -392 236 C-386.06 235.01 -386.06 235.01 -380 234 C-380.66 233.01 -381.32 232.02 -382 231 C-382 231.66 -382 232.32 -382 233 C-382.99 232.505 -382.99 232.505 -384 232 C-383.01 230.515 -383.01 230.515 -382 229 C-382.92234813 223.46591122 -384.79666083 220.65026823 -389 217 C-388.34 215.68 -387.68 214.36 -387 213 C-387.495 212.443125 -387.99 211.88625 -388.5 211.3125 C-390.24754367 208.61837017 -390.26218749 207.14624993 -390 204 C-390.66 204 -391.32 204 -392 204 C-391.95875 203.154375 -391.9175 202.30875 -391.875 201.4375 C-392.01318419 197.63743464 -392.85667133 194.62054079 -394 191 C-394.37905747 189.68866607 -394.75419966 188.37619264 -395.125 187.0625 C-395.41375 186.051875 -395.7025 185.04125 -396 184 C-396.66 184 -397.32 184 -398 184 C-399.29596818 181.24606762 -400.00726571 179.31969134 -399.9375 176.25 C-400.04516852 170.65123691 -401.90950748 165.63573878 -405 161 Z M-192 162 C-191.67 162.66 -191.34 163.32 -191 164 C-190.67 163.34 -190.34 162.68 -190 162 C-190.66 162 -191.32 162 -192 162 Z M-204 163 C-203.67 163.99 -203.34 164.98 -203 166 C-203 165.01 -203 164.02 -203 163 C-203.33 163 -203.66 163 -204 163 Z M-138 165 C-137 167 -137 167 -137 167 Z M-195 167 C-194 169 -194 169 -194 169 Z M-137 167 C-136 170 -136 170 -136 170 Z M-380 169 C-380.66 169.66 -381.32 170.32 -382 171 C-380.68 171 -379.36 171 -378 171 C-378 170.34 -378 169.68 -378 169 C-378.66 169 -379.32 169 -380 169 Z M-176 171 C-176 171.99 -176 172.98 -176 174 C-176.99 174.495 -176.99 174.495 -178 175 C-178 175.99 -178 176.98 -178 178 C-177.34 178 -176.68 178 -176 178 C-176 179.98 -176 181.96 -176 184 C-171.97128525 185.03595522 -170.34944269 184.86988854 -166 184 C-165.34 180.37 -164.68 176.74 -164 173 C-164.99 172.34 -165.98 171.68 -167 171 C-170.65670531 171.80648688 -170.65670531 171.80648688 -174 173 C-174 172.34 -174 171.68 -174 171 C-174.66 171 -175.32 171 -176 171 Z M-136 171 C-136 175.62 -136 180.24 -136 185 C-135.67 185 -135.34 185 -135 185 C-135 180.38 -135 175.76 -135 171 C-135.33 171 -135.66 171 -136 171 Z M-400 175 C-399 178 -399 178 -399 178 Z M-399 180 C-398 182 -398 182 -398 182 Z M-378 184 C-377 186 -377 186 -377 186 Z M-137 185 C-136 188 -136 188 -136 188 Z M-157 198 C-157 198.66 -157 199.32 -157 200 C-158.32 200.33 -159.64 200.66 -161 201 C-160.01 201.495 -160.01 201.495 -159 202 C-158.01 201.67 -157.02 201.34 -156 201 C-156.33 200.01 -156.66 199.02 -157 198 Z M-163 201 C-163.33 201.66 -163.66 202.32 -164 203 C-163.34 203 -162.68 203 -162 203 C-162.33 202.34 -162.66 201.68 -163 201 Z M-218 202 C-217 204 -217 204 -217 204 Z M-372 204 C-371 206 -371 206 -371 206 Z M-228 204 C-227.34 204.66 -226.68 205.32 -226 206 C-226 205.34 -226 204.68 -226 204 C-226.66 204 -227.32 204 -228 204 Z M-223 203 C-223.66 203.66 -224.32 204.32 -225 205 C-224.01 205 -223.02 205 -222 205 C-222.33 204.34 -222.66 203.68 -223 203 Z M-390 206 C-389 208 -389 208 -389 208 Z M-216 206 C-215.34 207.32 -214.68 208.64 -214 210 C-214.33 208.68 -214.66 207.36 -215 206 C-215.33 206 -215.66 206 -216 206 Z M-127 207 C-127 207.66 -127 208.32 -127 209 C-126.34 208.67 -125.68 208.34 -125 208 C-125.66 207.67 -126.32 207.34 -127 207 Z M-243 209 C-243.66 209.66 -244.32 210.32 -245 211 C-243.68 210.67 -242.36 210.34 -241 210 C-241.66 209.67 -242.32 209.34 -243 209 Z M-213 210 C-213 210.66 -213 211.32 -213 212 C-212.34 211.67 -211.68 211.34 -211 211 C-211.66 210.67 -212.32 210.34 -213 210 Z M-157 209 C-160.3 209.33 -163.6 209.66 -167 210 C-162.46780033 212.26609984 -160.82227075 211.92735976 -156 211 C-156.33 210.34 -156.66 209.68 -157 209 Z M-177 212 C-177 212.33 -177 212.66 -177 213 C-173.04 213 -169.08 213 -165 213 C-165 212.67 -165 212.34 -165 212 C-168.96 212 -172.92 212 -177 212 Z M-387 215 C-386 217 -386 217 -386 217 Z M-263.6875 216.5 C-264.120625 216.995 -264.55375 217.49 -265 218 C-261.535 217.505 -261.535 217.505 -258 217 C-258.33 216.34 -258.66 215.68 -259 215 C-262.00259517 214.66781808 -262.00259517 214.66781808 -263.6875 216.5 Z M-207 216 C-207.33 216.66 -207.66 217.32 -208 218 C-207.01 218.33 -206.02 218.66 -205 219 C-205.33 218.01 -205.66 217.02 -206 216 C-206.33 216 -206.66 216 -207 216 Z M-319 217 C-319.66 217.66 -320.32 218.32 -321 219 C-319.68 218.67 -318.36 218.34 -317 218 C-317.66 217.67 -318.32 217.34 -319 217 Z M-274 219 C-274.99 219.66 -275.98 220.32 -277 221 C-275.68 221 -274.36 221 -273 221 C-273.33 220.34 -273.66 219.68 -274 219 Z M-362 231 C-362 234 -362 234 -362 234 Z M-361 235 C-361 235.66 -361 236.32 -361 237 C-360.34 236.67 -359.68 236.34 -359 236 C-359.66 235.67 -360.32 235.34 -361 235 Z M-361 240 C-360 242 -360 242 -360 242 Z M-162 270 C-162 293.76 -162 317.52 -162 342 C-152.76 342 -143.52 342 -134 342 C-136.03320998 335.34816116 -136.03320998 335.34816116 -140 330 C-139.67 329.01 -139.34 328.02 -139 327 C-139.71776011 325.03337693 -139.71776011 325.03337693 -140.875 323.0625 C-142.35370337 320.37911872 -143.36807064 318.00502577 -144 315 C-144.66 315 -145.32 315 -146 315 C-145.9071875 314.0409375 -145.9071875 314.0409375 -145.8125 313.0625 C-146.07560776 308.76507326 -147.52817421 305.02123832 -149 301 C-149.99 301 -150.98 301 -152 301 C-153.14851513 297.3247516 -153.98597845 294.13904708 -154.375 290.28125 C-154.91129677 285.72457677 -156.36965062 281.74194277 -158.0625 277.5 C-158.34416016 276.77296875 -158.62582031 276.0459375 -158.91601562 275.296875 C-159.60258448 273.52808745 -160.30013682 271.76356959 -161 270 C-161.33 270 -161.66 270 -162 270 Z M-182 274 C-182.34933594 274.92683594 -182.69867188 275.85367187 -183.05859375 276.80859375 C-183.51363281 278.00613281 -183.96867187 279.20367187 -184.4375 280.4375 C-184.88996094 281.63246094 -185.34242188 282.82742188 -185.80859375 284.05859375 C-187 287 -187 287 -188 288 C-187.979375 289.02609375 -187.95875 290.0521875 -187.9375 291.109375 C-188.00334818 295.2084244 -188.78383214 298.34812811 -190 302.25 C-191.52989473 307.04530937 -191.52989473 307.04530937 -192 312 C-192.99 312 -193.98 312 -195 312 C-195.33 311.34 -195.66 310.68 -196 310 C-197.70298553 314.36852809 -199.10525536 318.39845613 -200 323 C-200.66666667 324.33333333 -201.33333333 325.66666667 -202 327 C-202 327.99 -202 328.98 -202 330 C-202.375 332.125 -202.375 332.125 -203 334 C-203.99 334.495 -203.99 334.495 -205 335 C-204.34 335 -203.68 335 -203 335 C-203.185625 335.969375 -203.37125 336.93875 -203.5625 337.9375 C-203.706875 338.948125 -203.85125 339.95875 -204 341 C-203.67 341.33 -203.34 341.66 -203 342 C-195.41 342 -187.82 342 -180 342 C-180 319.56 -180 297.12 -180 274 C-180.66 274 -181.32 274 -182 274 Z M-154 291 C-153 293 -153 293 -153 293 Z M-191 297 C-190 299 -190 299 -190 299 Z M-192 299 C-191 302 -191 302 -191 302 Z M-151 299 C-150 301 -150 301 -150 301 Z M-193 302 C-192 305 -192 305 -192 305 Z M-194 305 C-193 307 -193 307 -193 307 Z M-225 333 C-225.33 334.32 -225.66 335.64 -226 337 C-225.34 336.67 -224.68 336.34 -224 336 C-224.33 335.01 -224.66 334.02 -225 333 Z M-112 350 C-111 352 -111 352 -111 352 Z M-110 355 C-109 357 -109 357 -109 357 Z M-112 399 C-111 401 -111 401 -111 401 Z M-235 411 C-234 413 -234 413 -234 413 Z M-104 420 C-103 422 -103 422 -103 422 Z M-266 437 C-265.67 438.32 -265.34 439.64 -265 441 C-264.67 440.01 -264.34 439.02 -264 438 C-264.66 437.67 -265.32 437.34 -266 437 Z M-247 442 C-246 445 -246 445 -246 445 Z M-248 445 C-248.33 446.65 -248.66 448.3 -249 450 C-248.34 449.34 -247.68 448.68 -247 448 C-247.33 447.01 -247.66 446.02 -248 445 Z M-250 450 C-249 452 -249 452 -249 452 Z " fill="#F3F3F3" transform="translate(460,8)"/>
<path d="M0 0 C0 0.66 0 1.32 0 2 C0.66 2 1.32 2 2 2 C2 3.32 2 4.64 2 6 C-0.53506166 7.26753083 -2.72273203 7.06442498 -5.50927734 7.08789062 C-14.39179108 7.23499698 -20.10565205 9.08348044 -27.77734375 13.42578125 C-31.82949294 15.40519473 -35.16143963 15.63809276 -39.60546875 15.76171875 C-42.188625 16.01877019 -43.56989269 16.63199475 -45.75 18 C-49.47336763 20.29130316 -51.72237562 20.65080617 -56 21 C-56 20.01 -56 19.02 -56 18 C-55.2575 17.71125 -54.515 17.4225 -53.75 17.125 C-51.10879549 16.10191098 -51.10879549 16.10191098 -49.13671875 14.9921875 C-46.7670786 13.89184271 -44.6334856 13.44368318 -42.0625 13 C-38.46968663 12.33291331 -35.38687077 11.37305572 -32 10 C-29.67402489 9.6186926 -27.34087842 9.27539746 -25 9 C-25 8.34 -25 7.68 -25 7 C-20.82262526 5.40861915 -17.46839215 4.78721942 -13 5 C-12.67 4.34 -12.34 3.68 -12 3 C-9.0262656 1.90963072 -8.11592499 1.96135834 -5 3 C-5 2.34 -5 1.68 -5 1 C-3 0 -3 0 0 0 Z " fill="#000000" transform="translate(415,154)"/>
<path d="M0 0 C2.31 0.66 4.62 1.32 7 2 C7 2.66 7 3.32 7 4 C7.99 4.33 8.98 4.66 10 5 C9.67 5.66 9.34 6.32 9 7 C8.34 7 7.68 7 7 7 C7 7.66 7 8.32 7 9 C6.34 9 5.68 9 5 9 C4.855625 9.94875 4.71125 10.8975 4.5625 11.875 C4 15 4 15 3 17 C2.64386903 18.66194453 2.30791692 20.328451 2 22 C1.67 22 1.34 22 1 22 C1 19.69 1 17.38 1 15 C-1.64 15 -4.28 15 -7 15 C-7.33 14.34 -7.66 13.68 -8 13 C-7.34 12.34 -6.68 11.68 -6 11 C-5.67 10.34 -5.34 9.68 -5 9 C-4.525625 8.21625 -4.05125 7.4325 -3.5625 6.625 C-2.26778419 4.44987743 -1.0971353 2.27866562 0 0 Z " fill="#000000" transform="translate(263,161)"/>
<path d="M0 0 C0.33 0.66 0.66 1.32 1 2 C1.66 2 2.32 2 3 2 C4.07525194 4.65228812 5.09456151 7.28368454 6 10 C6.66 10.33 7.32 10.66 8 11 C8.66 11.33 9.32 11.66 10 12 C10.33 12.99 10.66 13.98 11 15 C11.99 15.474375 12.98 15.94875 14 16.4375 C17 18 17 18 17.875 20.1875 C17.91625 20.785625 17.9575 21.38375 18 22 C13.31567381 21.7244514 11.49561539 19.74364801 8.48046875 16.48046875 C6.93530494 14.80902463 6.93530494 14.80902463 4.3125 13.4375 C2 12 2 12 0.8046875 9.4609375 C-0.84028441 6.6439888 -0.84028441 6.6439888 -4.35546875 6.29296875 C-5.62003906 6.25816406 -6.88460937 6.22335938 -8.1875 6.1875 C-9.45980469 6.13980469 -10.73210937 6.09210938 -12.04296875 6.04296875 C-13.01878906 6.02878906 -13.99460938 6.01460937 -15 6 C-15 5.34 -15 4.68 -15 4 C-13.88625 3.855625 -12.7725 3.71125 -11.625 3.5625 C-8.17857953 3.21627965 -8.17857953 3.21627965 -6 2 C-5.01 2.33 -4.02 2.66 -3 3 C-3 2.34 -3 1.68 -3 1 C-2.01 0.67 -1.02 0.34 0 0 Z " fill="#000000" transform="translate(241,210)"/>
<path d="M0 0 C1.67542976 0.28604898 3.34385343 0.61781233 5 1 C5 3.31 5 5.62 5 8 C-1.14778871 9.6277833 -6.64012196 10.20190089 -13 10 C-13 9.34 -13 8.68 -13 8 C-14.65 8.33 -16.3 8.66 -18 9 C-17.5 7.125 -17.5 7.125 -16 5 C-13.29402575 4.17444853 -10.75661192 3.5503308 -8 3 C-3.65245006 2.14532908 -3.65245006 2.14532908 0 0 Z " fill="#000000" transform="translate(220,216)"/>
<path d="M0 0 C0 0.66 0 1.32 0 2 C-5.06171663 4.82667292 -9.17670494 6.30120459 -15 7 C-15.66 7.66 -16.32 8.32 -17 9 C-24.87258415 9.7955236 -31.84825575 9.43283724 -39 6 C-39 5.34 -39 4.68 -39 4 C-39.99 3.67 -40.98 3.34 -42 3 C-42 2.67 -42 2.34 -42 2 C-40.54119891 2.14107747 -39.08296449 2.28802415 -37.625 2.4375 C-36.40683594 2.55931641 -36.40683594 2.55931641 -35.1640625 2.68359375 C-33 3 -33 3 -31 4 C-28.44682169 4.09932273 -25.92770609 4.14198158 -23.375 4.125 C-22.64949951 4.12089111 -21.92399902 4.11678223 -21.17651367 4.11254883 C-13.73918185 4.03482416 -6.39761593 0 0 0 Z " fill="#000000" transform="translate(312,212)"/>
<path d="M0 0 C2.31 0 4.62 0 7 0 C7 1.65 7 3.3 7 5 C4.69 5.33 2.38 5.66 0 6 C0.20496094 6.54527344 0.40992187 7.09054688 0.62109375 7.65234375 C2.58675979 13.15432765 3.53781602 18.1764819 4 24 C3.34 24 2.68 24 2 24 C-0.125 17.25 -0.125 17.25 1 15 C0.34 15 -0.32 15 -1 15 C-1.13277344 14.44828125 -1.26554687 13.8965625 -1.40234375 13.328125 C-2.05660641 10.77949398 -2.80035064 8.26840657 -3.5625 5.75 C-3.83191406 4.85796875 -4.10132812 3.9659375 -4.37890625 3.046875 C-4.58386719 2.37140625 -4.78882812 1.6959375 -5 1 C-2.525 1.495 -2.525 1.495 0 2 C0 1.34 0 0.68 0 0 Z " fill="#000000" transform="translate(82,177)"/>
<path d="M0 0 C0 1.98 0 3.96 0 6 C-7.92 6 -15.84 6 -24 6 C-15.57757394 1.78878697 -9.31261222 -0.15784089 0 0 Z " fill="#000000" transform="translate(258,106)"/>
<path d="M0 0 C3.3 0.33 6.6 0.66 10 1 C6 4 6 4 3 4 C3 4.66 3 5.32 3 6 C-2.94 6 -8.88 6 -15 6 C-15 5.34 -15 4.68 -15 4 C-14.05125 3.855625 -13.1025 3.71125 -12.125 3.5625 C-9.1065506 3.17064601 -9.1065506 3.17064601 -7 2 C-6.01 2.33 -5.02 2.66 -4 3 C-3.67 2.34 -3.34 1.68 -3 1 C-2.01 1.33 -1.02 1.66 0 2 C0 1.34 0 0.68 0 0 Z " fill="#000000" transform="translate(126,163)"/>
<path d="M0 0 C0 1.32 0 2.64 0 4 C-3.60993172 5.13480527 -6.9842327 5.10015767 -10.75 5.0625 C-11.92046875 5.05347656 -13.0909375 5.04445313 -14.296875 5.03515625 C-15.18890625 5.02355469 -16.0809375 5.01195313 -17 5 C-17 3.68 -17 2.36 -17 1 C-15.9275 0.87625 -14.855 0.7525 -13.75 0.625 C-10.15785234 0.25094474 -10.15785234 0.25094474 -7.9375 -1.1875 C-4.93066101 -2.44843248 -2.89881581 -1.18587919 0 0 Z " fill="#000000" transform="translate(404,60)"/>
<path d="M0 0 C0 1.32 0 2.64 0 4 C-0.99 4.495 -0.99 4.495 -2 5 C-1.34 5.66 -0.68 6.32 0 7 C-7.26 7 -14.52 7 -22 7 C-18.60843066 3.60843066 -14.95034892 3.04751745 -10.25 2.8125 C-7 3 -7 3 -5 4 C-4.67 3.01 -4.34 2.02 -4 1 C-2 0 -2 0 0 0 Z " fill="#000000" transform="translate(184,129)"/>
<path d="M0 0 C-0.1875 1.875 -0.1875 1.875 -1 4 C-5.28993172 6.37596218 -9.5431484 6.23581603 -14.3125 6.125 C-15.05306641 6.11597656 -15.79363281 6.10695313 -16.55664062 6.09765625 C-18.37123467 6.07424213 -20.18566071 6.03837615 -22 6 C-17.74560485 3.81962249 -14.84315381 3 -10 3 C-10 2.34 -10 1.68 -10 1 C-6.52674819 -0.1577506 -3.63932552 -0.06866652 0 0 Z " fill="#000000" transform="translate(232,114)"/>
<path d="M0 0 C2.25 4.5 2.25 4.5 1.1015625 8.109375 C0.86953125 8.86347656 0.6375 9.61757813 0.3984375 10.39453125 C0.14320313 11.17183594 -0.11203125 11.94914062 -0.375 12.75 C-0.6225 13.54277344 -0.87 14.33554687 -1.125 15.15234375 C-1.73689932 17.10571467 -2.36673406 19.05345101 -3 21 C-3.99 21 -4.98 21 -6 21 C-6 19.35 -6 17.7 -6 16 C-5.34 16 -4.68 16 -4 16 C-2.68 10.72 -1.36 5.44 0 0 Z " fill="#000000" transform="translate(271,299)"/>
<path d="M0 0 C-5.04140164 2.81532819 -9.22621075 4.5188509 -15 5 C-15 4.34 -15 3.68 -15 3 C-9.96822606 0.24450475 -5.6529036 -1.8843012 0 0 Z " fill="#000000" transform="translate(310,89)"/>
<path d="M0 0 C0.33 0 0.66 0 1 0 C1 3.63 1 7.26 1 11 C-0.65 11 -2.3 11 -4 11 C-2.95902388 7.13351728 -1.96301592 3.50538557 0 0 Z " fill="#000000" transform="translate(335,213)"/>
<path d="M0 0 C0.66 0.66 1.32 1.32 2 2 C-7.22551253 6.77676538 -7.22551253 6.77676538 -13 5 C-10.53698577 2.53698577 -8.72639964 2.23233479 -5.375 1.375 C-4.37210937 1.11460938 -3.36921875 0.85421875 -2.3359375 0.5859375 C-1.56507813 0.39257812 -0.79421875 0.19921875 0 0 Z " fill="#000000" transform="translate(383,63)"/>
<path d="M0 0 C2.31 0.66 4.62 1.32 7 2 C7 2.66 7 3.32 7 4 C3.04 4 -0.92 4 -5 4 C-5.33 3.01 -5.66 2.02 -6 1 C-4.7934375 1.0309375 -4.7934375 1.0309375 -3.5625 1.0625 C-1.06645115 1.29633621 -1.06645115 1.29633621 0 0 Z " fill="#000000" transform="translate(143,225)"/>
<path d="M0 0 C2 1 2 1 2.78125 3.328125 C3.0184375 4.29234375 3.255625 5.2565625 3.5 6.25 C4.42656598 9.97640667 5.50201207 13.46164919 7 17 C6.01 17 5.02 17 4 17 C3.32844651 14.73050898 2.6626037 12.4596039 2 10.1875 C1.443125 8.29064453 1.443125 8.29064453 0.875 6.35546875 C0 3 0 3 0 0 Z " fill="#000000" transform="translate(136,167)"/>
<path d="M0 0 C0 0.66 0 1.32 0 2 C-5.445 3.485 -5.445 3.485 -11 5 C-11.33 4.01 -11.66 3.02 -12 2 C-10.7625 1.67 -9.525 1.34 -8.25 1 C-7.55390625 0.814375 -6.8578125 0.62875 -6.140625 0.4375 C-4 0 -4 0 0 0 Z " fill="#000000" transform="translate(80,242)"/>
<path d="M0 0 C0.99 0.495 0.99 0.495 2 1 C2 2.32 2 3.64 2 5 C4.97 5 7.94 5 11 5 C11 5.66 11 6.32 11 7 C6.545 7.495 6.545 7.495 2 8 C1.34 5.36 0.68 2.72 0 0 Z " fill="#000000" transform="translate(333,152)"/>
<path d="M0 0 C-1.65 0.66 -3.3 1.32 -5 2 C-5 2.66 -5 3.32 -5 4 C-6.75 5.125 -6.75 5.125 -9 6 C-11.140625 5.0546875 -11.140625 5.0546875 -13 4 C-11.40233897 3.13372601 -9.79660056 2.28233535 -8.1875 1.4375 C-7.29417969 0.96183594 -6.40085937 0.48617187 -5.48046875 -0.00390625 C-3 -1 -3 -1 0 0 Z " fill="#000000" transform="translate(282,152)"/>
<path d="M0 0 C-0.33 1.32 -0.66 2.64 -1 4 C-4.63 4.33 -8.26 4.66 -12 5 C-8.20719891 2.15539918 -4.85346408 0 0 0 Z " fill="#000000" transform="translate(121,232)"/>
<path d="M0 0 C-4.80061213 3.64184368 -10.19935017 4.13650572 -16 5 C-15 3 -15 3 -12.3828125 1.89453125 C-10.77019531 1.35892578 -10.77019531 1.35892578 -9.125 0.8125 C-8.05507813 0.44769531 -6.98515625 0.08289063 -5.8828125 -0.29296875 C-3 -1 -3 -1 0 0 Z " fill="#000000" transform="translate(319,234)"/>
<path d="M0 0 C0 0.66 0 1.32 0 2 C-9.41002278 5.62870159 -9.41002278 5.62870159 -14 4 C-9.8890341 1.60193656 -4.7653956 0 0 0 Z " fill="#000000" transform="translate(487,148)"/>
<path d="M0 0 C1.32 0.33 2.64 0.66 4 1 C3.67 1.99 3.34 2.98 3 4 C-0.3 4 -3.6 4 -7 4 C-5.68 3.01 -4.36 2.02 -3 1 C-2.01 1.33 -1.02 1.66 0 2 C0 1.34 0 0.68 0 0 Z " fill="#000000" transform="translate(325,81)"/>
<path d="M0 0 C0.66 0 1.32 0 2 0 C2 2.31 2 4.62 2 7 C0.35 7 -1.3 7 -3 7 C-2.01 4.69 -1.02 2.38 0 0 Z " fill="#000000" transform="translate(255,343)"/>
<path d="M0 0 C-0.33 0.99 -0.66 1.98 -1 3 C-4.3 3.33 -7.6 3.66 -11 4 C-11 3.34 -11 2.68 -11 2 C-9.5422647 1.664061 -8.08378894 1.33133376 -6.625 1 C-5.40683594 0.7215625 -5.40683594 0.7215625 -4.1640625 0.4375 C-2 0 -2 0 0 0 Z " fill="#000000" transform="translate(358,173)"/>
<path d="M0 0 C0.33 0 0.66 0 1 0 C1 2.31 1 4.62 1 7 C-0.32 7 -1.64 7 -3 7 C-2.67 5.35 -2.34 3.7 -2 2 C-1.34 2 -0.68 2 0 2 C0 1.34 0 0.68 0 0 Z " fill="#000000" transform="translate(327,225)"/>
<path d="M0 0 C0 0.66 0 1.32 0 2 C-6.625 5 -6.625 5 -10 5 C-9.67 4.01 -9.34 3.02 -9 2 C-3.21052632 0 -3.21052632 0 0 0 Z " fill="#000000" transform="translate(473,152)"/>
<path d="M0 0 C1.98 0 3.96 0 6 0 C6 0.99 6 1.98 6 3 C4.02 3 2.04 3 0 3 C0 2.01 0 1.02 0 0 Z " fill="#000000" transform="translate(286,178)"/>
<path d="M0 0 C0.66 0 1.32 0 2 0 C2 1.32 2 2.64 2 4 C1.34 4 0.68 4 0 4 C0 2.68 0 1.36 0 0 Z " fill="#000000" transform="translate(103,238)"/>
<path d="M0 0 C4 1 4 1 4 1 Z " fill="#000000" transform="translate(269,158)"/>
<path d="M0 0 C0.66 0 1.32 0 2 0 C2 0.66 2 1.32 2 2 C1.34 2 0.68 2 0 2 C0 1.34 0 0.68 0 0 Z " fill="#000000" transform="translate(488,148)"/>
<path d="M0 0 C0.66 0 1.32 0 2 0 C2 0.66 2 1.32 2 2 C1.34 2 0.68 2 0 2 C0 1.34 0 0.68 0 0 Z " fill="#000000" transform="translate(251,145)"/>
<path d="M0 0 C0.66 0 1.32 0 2 0 C2 0.66 2 1.32 2 2 C1.34 2 0.68 2 0 2 C0 1.34 0 0.68 0 0 Z " fill="#000000" transform="translate(215,96)"/>
<path d="" fill="#000000" transform="translate(0,0)"/>
<path d="" fill="#000000" transform="translate(0,0)"/>
<path d="M0 0 C3 1 3 1 3 1 Z " fill="#000000" transform="translate(134,228)"/>
<path d="M0 0 C3 1 3 1 3 1 Z " fill="#000000" transform="translate(191,227)"/>
<path d="M0 0 C0.99 0.495 0.99 0.495 2 1 C1.01 1.495 1.01 1.495 0 2 C0 1.34 0 0.68 0 0 Z " fill="#000000" transform="translate(148,202)"/>
<path d="M0 0 C3 1 3 1 3 1 Z " fill="#000000" transform="translate(343,181)"/>
<path d="M0 0 C0.66 0 1.32 0 2 0 C1.67 0.66 1.34 1.32 1 2 C0.67 1.34 0.34 0.68 0 0 Z " fill="#000000" transform="translate(319,171)"/>
<path d="M0 0 C3 1 3 1 3 1 Z " fill="#000000" transform="translate(311,161)"/>
<path d="M0 0 C0.33 0.66 0.66 1.32 1 2 C0.34 1.67 -0.32 1.34 -1 1 C-0.67 0.67 -0.34 0.34 0 0 Z " fill="#000000" transform="translate(73,159)"/>
<path d="M0 0 C3 1 3 1 3 1 Z " fill="#000000" transform="translate(491,148)"/>
<path d="" fill="#000000" transform="translate(0,0)"/>
<path d="M0 0 C3 1 3 1 3 1 Z " fill="#000000" transform="translate(155,137)"/>
<path d="M0 0 C0.66 0.66 1.32 1.32 2 2 C1.34 2 0.68 2 0 2 C0 1.34 0 0.68 0 0 Z " fill="#000000" transform="translate(251,83)"/>
<path d="M0 0 C0.33 0.66 0.66 1.32 1 2 C0.34 1.67 -0.32 1.34 -1 1 C-0.67 0.67 -0.34 0.34 0 0 Z " fill="#000000" transform="translate(432,9)"/>
<path d="M0 0 C2 1 2 1 2 1 Z " fill="#000000" transform="translate(183,484)"/>
<path d="" fill="#000000" transform="translate(0,0)"/>
<path d="" fill="#000000" transform="translate(0,0)"/>
<path d="M0 0 C2 1 2 1 2 1 Z " fill="#000000" transform="translate(267,256)"/>
<path d="M0 0 C2 1 2 1 2 1 Z " fill="#000000" transform="translate(59,224)"/>
<path d="M0 0 C2 1 2 1 2 1 Z " fill="#000000" transform="translate(135,162)"/>
<path d="" fill="#000000" transform="translate(0,0)"/>
<path d="" fill="#000000" transform="translate(0,0)"/>
<path d="M0 0 C2 1 2 1 2 1 Z " fill="#000000" transform="translate(247,150)"/>
<path d="M0 0 C2 1 2 1 2 1 Z " fill="#000000" transform="translate(311,136)"/>
<path d="M0 0 C2 1 2 1 2 1 Z " fill="#000000" transform="translate(282,96)"/>
<path d="M0 0 C2 1 2 1 2 1 Z " fill="#000000" transform="translate(234,91)"/>
<path d="M0 0 C2 1 2 1 2 1 Z " fill="#000000" transform="translate(255,84)"/>
<path d="" fill="#000000" transform="translate(0,0)"/>
<path d="M0 0 C2 1 2 1 2 1 Z " fill="#000000" transform="translate(403,57)"/>
<path d="" fill="#000000" transform="translate(0,0)"/>
<path d="" fill="#000000" transform="translate(0,0)"/>
<path d="" fill="#000000" transform="translate(0,0)"/>
<path d="" fill="#000000" transform="translate(0,0)"/>
<path d="" fill="#000000" transform="translate(0,0)"/>
<path d="" fill="#000000" transform="translate(0,0)"/>
<path d="" fill="#000000" transform="translate(0,0)"/>
<path d="" fill="#000000" transform="translate(0,0)"/>
<path d="" fill="#000000" transform="translate(0,0)"/>
<path d="" fill="#000000" transform="translate(0,0)"/>
<path d="" fill="#000000" transform="translate(0,0)"/>
<path d="" fill="#000000" transform="translate(0,0)"/>
<path d="" fill="#000000" transform="translate(0,0)"/>
<path d="" fill="#000000" transform="translate(0,0)"/>
<path d="" fill="#000000" transform="translate(0,0)"/>
<path d="" fill="#000000" transform="translate(0,0)"/>
<path d="" fill="#000000" transform="translate(0,0)"/>
<path d="" fill="#000000" transform="translate(0,0)"/>
<path d="" fill="#000000" transform="translate(0,0)"/>
<path d="" fill="#000000" transform="translate(0,0)"/>
<path d="" fill="#000000" transform="translate(0,0)"/>
<path d="" fill="#000000" transform="translate(0,0)"/>
<path d="" fill="#000000" transform="translate(0,0)"/>
<path d="" fill="#000000" transform="translate(0,0)"/>
<path d="" fill="#000000" transform="translate(0,0)"/>
<path d="" fill="#000000" transform="translate(0,0)"/>
<path d="" fill="#000000" transform="translate(0,0)"/>
<path d="" fill="#000000" transform="translate(0,0)"/>
<path d="" fill="#000000" transform="translate(0,0)"/>
<path d="" fill="#000000" transform="translate(0,0)"/>
</svg>
